<?xml version="1.0" standalone="no"?>
<!DOCTYPE svg PUBLIC "-//W3C//DTD SVG 1.1//EN" "http://www.w3.org/Graphics/SVG/1.1/DTD/svg11.dtd" >
<svg>
<metadata>
Created by FontForge 20120731 at Sun Jun 30 04:36:25 2019
 By www
Copyright (c) 2013 by FONTYOU. All rights reserved. www.fontyou.com
</metadata>
<defs>
<font id="BoosterNextFYW01-Medium" horiz-adv-x="628" >
  <font-face 
    font-family="BoosterNextFYW01-Medium"
    font-weight="500"
    font-stretch="normal"
    units-per-em="1000"
    panose-1="2 0 6 3 0 0 0 2 0 4"
    ascent="800"
    descent="-200"
    x-height="501"
    cap-height="690"
    bbox="-250 -218 1048 960"
    underline-thickness="50"
    underline-position="-125"
    unicode-range="U+000D-2122"
  />
<missing-glyph horiz-adv-x="602" 
d="M305 435q16 29 41.5 47t56.5 18q43 0 71 -29.5t28 -75.5q0 -30 -13.5 -65t-39 -70t-63 -67.5t-85.5 -57.5q-48 25 -85.5 57.5t-63 67.5t-39 70t-13.5 65q0 46 28 75.5t71 29.5q31 0 56.5 -18t41.5 -47h8z" />
    <glyph glyph-name=".notdef" horiz-adv-x="602" 
d="M305 435q16 29 41.5 47t56.5 18q43 0 71 -29.5t28 -75.5q0 -30 -13.5 -65t-39 -70t-63 -67.5t-85.5 -57.5q-48 25 -85.5 57.5t-63 67.5t-39 70t-13.5 65q0 46 28 75.5t71 29.5q31 0 56.5 -18t41.5 -47h8z" />
    <glyph glyph-name="glyph1" horiz-adv-x="0" 
 />
    <glyph glyph-name="glyph1" horiz-adv-x="0" 
 />
    <glyph glyph-name="uni000D" unicode="&#xd;" horiz-adv-x="213" 
 />
    <glyph glyph-name="space" unicode=" " horiz-adv-x="213" 
 />
    <glyph glyph-name="exclam" unicode="!" horiz-adv-x="286" 
d="M183 242q0 -17 -10.5 -29.5t-29.5 -12.5q-18 0 -28 12.5t-10 29.5l-11 399q-1 25 10 42t39 17q27 0 38 -16.5t11 -43.5zM99 15q-16 16 -16 45q0 28 16.5 44t43.5 16q26 0 43 -16t17 -44q0 -29 -17 -44.5t-43 -15.5q-27 0 -44 15z" />
    <glyph glyph-name="quotedbl" unicode="&#x22;" horiz-adv-x="381" 
d="M150 499q-2 -12 -9.5 -19.5t-19.5 -7.5q-11 0 -19 7.5t-9 20.5l-9 165q-2 20 9.5 30.5t27.5 10.5q17 0 28.5 -11t9.5 -31zM288 499q-2 -12 -9.5 -19.5t-19.5 -7.5q-11 0 -19 7.5t-9 20.5l-9 165q-2 20 9.5 30.5t27.5 10.5q17 0 28.5 -11t9.5 -31z" />
    <glyph glyph-name="numbersign" unicode="#" horiz-adv-x="700" 
d="M121 16q-12 -26 -33 -26q-14 -1 -24.5 8.5t-11.5 25.5q0 8 3 16l63 143h-44q-16 0 -26 9t-10 24t10 25t26 10h74l83 190h-47q-16 0 -26 9t-10 24t10 25t26 10h77l75 171q5 13 14 18t17 6q14 0 24.5 -8.5t10.5 -25.5q0 -3 -0.5 -7.5t-2.5 -7.5l-64 -146h170l75 171
q5 12 14 17.5t17 5.5q14 1 24.5 -7.5t11.5 -25.5q0 -9 -3 -16l-64 -145h46q16 0 26 -9.5t10 -24.5t-10 -24.5t-26 -9.5h-76l-83 -190h49q16 0 26 -9.5t10 -24.5t-10 -24.5t-26 -9.5h-78l-73 -167q-6 -14 -14.5 -19.5t-18.5 -6.5q-14 0 -24.5 9t-10.5 25q0 4 0.5 8t2.5 8
l62 143h-169zM223 251h169l83 190h-169z" />
    <glyph glyph-name="dollar" unicode="$" 
d="M277 -8q-38 3 -68 13.5t-53.5 24.5t-40 29.5t-27.5 28.5q-8 8 -15.5 19t-7.5 23t4.5 20.5t11.5 13.5t14 7.5t13 2.5q11 0 19.5 -4t16.5 -12q13 -14 29 -28t37 -25.5t48.5 -19t63.5 -7.5q30 0 57 7.5t47 21.5t32 34t12 45q0 29 -11.5 49t-34.5 34.5t-58.5 26t-83.5 24.5
q-34 9 -69 22.5t-63 35t-45.5 54t-17.5 78.5q0 39 14.5 71t40 56t60.5 39.5t75 20.5v67q0 20 12.5 32t32.5 12q19 0 32 -12t13 -32v-68q48 -7 80.5 -23.5t53.5 -30.5q14 -10 20.5 -22t6.5 -24q0 -22 -14 -32.5t-28 -10.5t-22.5 4t-16.5 9q-9 5 -20.5 13t-27.5 15.5
t-37.5 12.5t-51.5 5q-64 0 -97 -30.5t-33 -70.5q0 -25 12.5 -43.5t36 -32.5t57.5 -25.5t76 -22.5q35 -9 70.5 -21.5t64.5 -34.5t47 -55.5t18 -84.5q0 -35 -12.5 -67.5t-37 -59t-61 -45t-84.5 -25.5v-68q0 -20 -13 -32t-32 -12q-20 0 -32.5 12t-12.5 32v66z" />
    <glyph glyph-name="percent" unicode="%" horiz-adv-x="746" 
d="M180 354q-62 0 -102 45t-40 129q0 41 11 73t30 54t45 33.5t56 11.5q62 0 102 -45t40 -127q0 -83 -40 -128.5t-102 -45.5zM151 14q-8 -11 -15.5 -15t-14.5 -4q-15 0 -24.5 10.5t-9.5 22.5q0 8 3 13.5t9 13.5l491 617q8 11 15 14.5t15 3.5q14 0 23.5 -9.5t9.5 -24.5
q0 -7 -3 -12.5t-10 -13.5zM126 443q21 -27 54 -27t54 27.5t21 84.5q0 56 -21 83.5t-54 27.5t-54 -27t-21 -84t21 -85zM565 -10q-62 0 -102 45t-40 128q0 41 11 73.5t30 54.5t45 33.5t56 11.5q62 0 102 -45t40 -127q0 -84 -40 -129t-102 -45zM511 79q21 -28 54 -28t54 28
t21 85q0 56 -21 83t-54 27t-54 -26.5t-21 -83.5t21 -85z" />
    <glyph glyph-name="ampersand" unicode="&#x26;" horiz-adv-x="659" 
d="M457 113q-32 -32 -59 -55.5t-53.5 -38.5t-54 -22.5t-59.5 -7.5q-39 0 -72 13.5t-56.5 36.5t-36.5 55t-13 69q0 36 13 65.5t34 55t48.5 48t56.5 42.5l-14 14q-42 42 -61 78.5t-19 76.5q0 35 12.5 64t35 50t53.5 33t68 12q33 0 62.5 -11t51.5 -31t35 -48t13 -63
q0 -28 -10 -52t-27 -45.5t-39 -41t-46 -37.5l145 -142l60 62q8 8 14.5 10t14.5 2q17 0 28 -11.5t11 -25.5q0 -16 -18 -32l-56 -58l110 -106q16 -16 16 -33q0 -14 -11 -26.5t-27 -12.5q-19 0 -36 17l-107 104zM255 325q-46 -34 -79 -69.5t-33 -80.5q0 -44 27.5 -75.5
t75.5 -31.5q42 0 76.5 26t71.5 65l15 16zM271 420q39 28 66 56.5t27 62.5q0 35 -24 59t-62 24q-39 0 -61.5 -24.5t-22.5 -56.5q0 -20 10 -42t39 -51z" />
    <glyph glyph-name="quotesingle" unicode="'" horiz-adv-x="243" 
d="M150 499q-2 -12 -9.5 -19.5t-19.5 -7.5q-11 0 -19 7.5t-9 20.5l-9 165q-2 20 9.5 30.5t27.5 10.5q17 0 28.5 -11t9.5 -31z" />
    <glyph glyph-name="parenleft" unicode="(" horiz-adv-x="317" 
d="M233 -163q-9 6 -20 20q-12 15 -37 52t-50 91.5t-43.5 125.5t-18.5 154t18.5 154t43.5 125.5t50 91.5t37 52q11 14 20.5 20.5t23.5 6.5q17 0 29.5 -12.5t12.5 -26.5t-23 -48q-16 -22 -37 -55t-40 -78t-32 -102.5t-13 -127.5t13 -127.5t32 -102.5t40 -78t37 -55
q12 -18 17.5 -29t5.5 -20q0 -13 -12.5 -25.5t-29.5 -12.5q-14 0 -24 7z" />
    <glyph glyph-name="parenright" unicode=")" horiz-adv-x="317" 
d="M31 -157q-13 12 -13 25q0 9 6 20t18 29q16 22 37 55t40 78t32 102.5t13 127.5t-13 127.5t-32 102.5t-40 78t-37 55q-12 18 -18 29t-6 19q0 14 13 26.5t30 12.5q13 0 23 -6.5t21 -20.5q12 -15 37 -52t50 -91.5t43.5 -125.5t18.5 -154t-18.5 -154t-43.5 -125.5t-50 -91.5
t-37 -52q-11 -14 -21 -20.5t-23 -6.5q-17 0 -30 13z" />
    <glyph glyph-name="asterisk" unicode="*" horiz-adv-x="471" 
d="M193 419q-7 -21 -23 -27t-32 5q-17 11 -17 28t17 30l71 68l-93 14q-23 1 -33.5 14t-4.5 32q7 20 22 26t32 -6l88 -50l-18 98q-5 20 4.5 33t29.5 13t30 -12.5t4 -32.5l-19 -99l86 46q17 11 33 6t23 -23q7 -20 -3.5 -34t-33.5 -13l-95 -14l69 -67q17 -14 17 -30
q0 -17 -15 -27q-17 -13 -33 -7.5t-23 26.5l-42 88z" />
    <glyph glyph-name="plus" unicode="+" 
d="M160 283q-16 0 -26 9.5t-10 24.5t10 24.5t26 9.5h120v123q0 16 10 26t24 10q15 0 25 -10t10 -26v-123h119q16 0 26 -9.5t10 -24.5t-10 -24.5t-26 -9.5h-120v-124q0 -16 -9.5 -25.5t-24.5 -9.5t-24.5 9.5t-9.5 25.5v124h-120z" />
    <glyph glyph-name="comma" unicode="," horiz-adv-x="286" 
d="M122 -65q19 21 22 64q-34 4 -47.5 20.5t-13.5 38.5q0 30 17 45.5t42 15.5q29 0 46 -19.5t17 -60.5q0 -46 -12.5 -79.5t-31 -55t-39 -32t-36.5 -10.5q-25 0 -25 21q0 15 17 22q26 9 44 30z" />
    <glyph glyph-name="hyphen" unicode="-" horiz-adv-x="417" 
d="M104 217q-17 0 -29 11t-12 29q0 19 12 29.5t29 10.5h209q18 0 29.5 -10.5t11.5 -29.5q0 -18 -11.5 -29t-29.5 -11h-209z" />
    <glyph glyph-name="period" unicode="." horiz-adv-x="286" 
d="M99 15q-16 15 -16 44q0 28 16 44t44 16q25 0 42.5 -15.5t17.5 -43.5q0 -30 -17 -45t-43 -15q-27 0 -44 15z" />
    <glyph glyph-name="slash" unicode="/" horiz-adv-x="405" 
d="M101 36q-10 -21 -21 -28.5t-25 -7.5q-16 0 -29 11t-13 30q0 12 8 28l284 587q16 34 42 34q19 0 32 -11t13 -30q0 -7 -3 -15t-6 -15z" />
    <glyph glyph-name="zero" unicode="0" horiz-adv-x="610" 
d="M305 -11q-122 0 -184.5 90.5t-62.5 265.5q0 84 16.5 149.5t48.5 111.5t77.5 70t104.5 24t105 -24t77.5 -69.5t48 -111.5t16.5 -150q0 -174 -63.5 -265t-183.5 -91zM187 145q40 -71 118 -71t117.5 71.5t39.5 199.5q0 61 -10 111t-30 85t-49.5 54t-67.5 19t-67.5 -19
t-49.5 -54t-30.5 -85t-10.5 -111q0 -128 40 -200z" />
    <glyph glyph-name="one" unicode="1" horiz-adv-x="396" 
d="M297 42q0 -17 -12 -29.5t-32 -12.5q-18 0 -31 11t-13 31v514l-101 -85q-7 -6 -16 -10t-17 -4q-18 0 -30 12.5t-12 29.5q0 19 18 34l162 139q15 12 24 15t15 3q21 0 33 -11.5t12 -31.5v-605z" />
    <glyph glyph-name="two" unicode="2" horiz-adv-x="526" 
d="M94 0q-14 0 -30 8.5t-16 31.5q0 20 18 41l195 241q30 37 51 66.5t34 53t19 43t6 38.5q0 37 -27 64t-81 27q-48 0 -75.5 -18t-42.5 -45q-18 -30 -43 -28q-17 0 -29 11t-12 32q0 18 13 41t38.5 43.5t63.5 35t88 14.5q43 0 79 -12t62.5 -34.5t41 -55.5t14.5 -75
q0 -29 -8 -55.5t-23.5 -54.5t-38.5 -58.5t-52 -66.5l-162 -205h256q20 0 32.5 -11t12.5 -31q0 -19 -12.5 -30t-32.5 -11h-339z" />
    <glyph glyph-name="three" unicode="3" horiz-adv-x="529" 
d="M210 328q-19 0 -32.5 11.5t-13.5 30.5q0 20 14.5 30t35.5 10h31q26 0 46.5 8t35 22t22 32.5t7.5 39.5q0 48 -34 75.5t-84 27.5q-35 0 -61.5 -9.5t-53.5 -27.5q-12 -9 -26 -9t-26 10.5t-12 27.5q0 20 22 39q8 7 22.5 16.5t35 17.5t46 14t56.5 6q45 0 83 -13.5t65 -36.5
t42.5 -55t15.5 -68q0 -51 -26.5 -90.5t-79.5 -60.5q66 -18 98 -65.5t32 -104.5q0 -50 -18 -90t-49.5 -68.5t-73.5 -44t-91 -15.5q-60 0 -104 15.5t-77 44.5q-20 18 -20 38q0 18 13 29.5t30 11.5q14 0 25 -8q28 -23 59 -33.5t70 -10.5q31 0 58 9t46.5 26t30.5 41.5t11 54.5
q0 53 -34 87.5t-100 34.5h-37z" />
    <glyph glyph-name="four" unicode="4" horiz-adv-x="545" 
d="M73 142q-20 0 -32.5 10.5t-12.5 30.5q0 13 12 33l292 444q11 17 21.5 23.5t24.5 6.5q20 0 32 -12t12 -33v-421h51q19 0 31 -10.5t12 -30.5t-12 -30.5t-31 -10.5h-52v-99q0 -20 -11.5 -31.5t-31.5 -11.5q-19 0 -31 11.5t-12 31.5v99h-262zM134 224h201v314z" />
    <glyph glyph-name="five" unicode="5" horiz-adv-x="561" 
d="M173 402q20 21 54.5 35t76.5 14q46 0 84 -15t66 -43.5t43.5 -70t15.5 -93.5q0 -54 -18 -98t-49 -75.5t-72.5 -48.5t-87.5 -17q-56 0 -97 16.5t-68 39t-40 46.5t-13 40q0 17 11.5 29.5t29.5 12.5t34 -16q30 -51 67.5 -67.5t75.5 -16.5q30 0 56 11t45 30.5t30 47t11 60.5
q0 30 -10 57t-28 46.5t-43 31t-56 11.5q-42 0 -70.5 -14.5t-54.5 -41.5q-7 -6 -16 -13.5t-26 -7.5q-38 0 -37 46l13 310q2 20 12 31t30 11h294q17 0 29.5 -11.5t12.5 -29.5q0 -19 -12.5 -30t-29.5 -11h-254z" />
    <glyph glyph-name="six" unicode="6" horiz-adv-x="577" 
d="M242 552q-68 -63 -91 -198q19 40 63 66t96 26q47 0 86 -16.5t66.5 -46t42.5 -70t15 -89.5q0 -50 -18.5 -93t-49.5 -74.5t-73 -49t-88 -17.5q-52 0 -95 19q-43 20 -73.5 56.5t-47.5 89t-17 119.5q0 93 26 171t73 134.5t112.5 88.5t145.5 32q23 0 42 -8t19 -34
q0 -18 -11.5 -29t-37.5 -12q-117 -2 -185 -65zM191 116q19 -20 45 -31.5t56 -11.5q29 0 54.5 11t44.5 30.5t30 46.5t11 59q0 63 -38 103.5t-102 40.5q-29 0 -54.5 -11.5t-45 -31t-30.5 -45.5t-11 -56t10.5 -57t29.5 -47z" />
    <glyph glyph-name="seven" unicode="7" horiz-adv-x="466" 
d="M154 31q-16 -31 -42 -31q-17 0 -30 10.5t-13 30.5q0 6 2.5 13.5t6.5 15.5l261 541h-268q-18 0 -30.5 10.5t-12.5 28.5t12 29t31 11h328q20 0 34 -8.5t14 -29.5q0 -8 -3 -17t-6 -17z" />
    <glyph glyph-name="eight" unicode="8" horiz-adv-x="557" 
d="M132 351q24 18 51 28q-45 25 -67.5 63.5t-22.5 81.5q0 37 14 69t38.5 56t58.5 37.5t75 13.5t75 -13.5t58.5 -37.5t38 -56t13.5 -69q0 -47 -23.5 -84.5t-66.5 -60.5q57 -20 93.5 -67.5t36.5 -111.5q0 -45 -17 -83.5t-47 -66.5t-71.5 -44t-91.5 -16t-91 16t-70.5 44
t-46 66.5t-16.5 83.5q0 31 10 59.5t28 51.5t41 40zM209 447q13 -14 31 -22.5t39 -8.5t38.5 8.5t30 22.5t20 32.5t7.5 38.5q0 42 -26.5 70t-69.5 28q-44 0 -71 -28t-27 -70q0 -20 7.5 -38.5t20.5 -32.5zM154 154q10 -25 28 -43t42.5 -28.5t53.5 -10.5t54 10.5t43 28.5t28 43
t10 54t-9.5 53.5t-27.5 42.5t-42.5 28t-54.5 10t-55 -10t-42.5 -28t-27.5 -42.5t-10 -53.5t10 -54z" />
    <glyph glyph-name="nine" unicode="9" horiz-adv-x="577" 
d="M336 140q70 65 90 196q-19 -40 -62.5 -66t-93.5 -26q-46 0 -85 16t-67.5 45.5t-44.5 71.5t-16 93q0 50 18.5 92t49.5 73t72.5 48t88.5 17q52 0 94.5 -19.5t73.5 -56t48 -89t17 -119.5q0 -93 -26 -171t-73 -134.5t-112.5 -88.5t-145.5 -32q-23 0 -42 8t-19 34
q0 18 11.5 29t37.5 12q116 2 186 67zM183 366q38 -39 102 -39q29 0 54.5 11t44.5 30.5t30 45.5t11 56t-10.5 57t-29 46.5t-44.5 31t-56 11.5t-55.5 -11.5t-44 -31t-29.5 -46.5t-11 -58q0 -63 38 -103z" />
    <glyph glyph-name="colon" unicode=":" horiz-adv-x="286" 
d="M99 15q-16 15 -16 44q0 28 16 44t44 16q25 0 42.5 -15.5t17.5 -43.5q0 -30 -17 -45t-43 -15q-27 0 -44 15zM99 388q-16 15 -16 44q0 28 16 44t44 16q25 0 42.5 -15.5t17.5 -43.5q0 -30 -17 -45t-43 -15q-27 0 -44 15z" />
    <glyph glyph-name="semicolon" unicode=";" horiz-adv-x="286" 
d="M122 -65q19 21 22 64q-34 4 -47.5 20.5t-13.5 38.5q0 30 17 45.5t42 15.5q29 0 46 -19.5t17 -60.5q0 -46 -12.5 -79.5t-31 -55t-39 -32t-36.5 -10.5q-25 0 -25 21q0 15 17 22q26 9 44 30zM99 388q-16 15 -16 44q0 28 16 44t44 16q25 0 42.5 -15.5t17.5 -43.5
q0 -30 -17 -45t-43 -15q-27 0 -44 15z" />
    <glyph glyph-name="less" unicode="&#x3c;" 
d="M168 287q-9 5 -15 13t-6 20t6 19t15 13l237 141q8 5 14.5 7.5t14.5 2.5q14 0 23.5 -9.5t9.5 -25.5q0 -20 -24 -34l-199 -114l199 -115q11 -7 17.5 -14.5t6.5 -18.5q0 -14 -9 -24.5t-23 -10.5q-8 0 -15 2.5t-15 6.5z" />
    <glyph glyph-name="equal" unicode="=" 
d="M160 370q-16 0 -26 9.5t-10 24.5t10 24.5t26 9.5h308q16 0 26 -9.5t10 -24.5t-10 -24.5t-26 -9.5h-308zM160 196q-16 0 -26 9.5t-10 24.5t10 24.5t26 9.5h308q16 0 26 -9.5t10 -24.5t-10 -24.5t-26 -9.5h-308z" />
    <glyph glyph-name="greater" unicode="&#x3e;" 
d="M223 146q-8 -4 -15 -6.5t-15 -2.5q-14 0 -23 10.5t-9 24.5q0 11 6 18.5t18 14.5l199 115l-199 114q-24 13 -24 34q0 16 9.5 25.5t23.5 9.5q8 0 14.5 -2.5t14.5 -7.5l237 -141q9 -6 15 -13t6 -19t-6 -20t-15 -13z" />
    <glyph glyph-name="question" unicode="?" horiz-adv-x="532" 
d="M284 241q0 -18 -11.5 -29.5t-31.5 -11.5q-21 0 -32 11.5t-11 29.5v120q0 20 12 31.5t29 15.5q124 27 124 115q0 38 -26 65t-76 27q-59 0 -99 -48q-14 -17 -25 -29.5t-28 -12.5q-20 0 -30.5 11.5t-10.5 28.5q0 19 7.5 33t15.5 24q26 32 68 55t103 23q88 0 140 -46.5
t52 -128.5q0 -39 -12.5 -69t-35 -52.5t-54 -39t-68.5 -27.5v-96zM197 15q-16 16 -16 45q0 28 16.5 44t43.5 16q26 0 43 -16t17 -44q0 -29 -17 -44.5t-43 -15.5q-27 0 -44 15z" />
    <glyph glyph-name="at" unicode="@" horiz-adv-x="803" 
d="M552 175q0 -27 12.5 -41.5t35.5 -14.5q27 0 51.5 32.5t24.5 95.5q0 54 -14.5 103t-46 86t-81.5 59t-120 22q-71 0 -124.5 -23.5t-89.5 -63.5t-54.5 -92.5t-18.5 -110.5q0 -57 18.5 -109.5t54 -92.5t87 -63.5t118.5 -23.5q35 0 58 5.5t44 14.5q15 7 25 7q14 0 22 -10.5
t8 -22.5q0 -10 -4 -19t-15 -15q-17 -11 -54 -21.5t-91 -10.5q-82 0 -146 30t-108.5 79.5t-67.5 114.5t-23 134q0 74 24 140t69.5 116t112.5 79t154 29q75 0 137 -24t106.5 -67t69 -103.5t24.5 -132.5q0 -56 -13.5 -96t-35 -66t-50 -38.5t-58.5 -12.5q-27 0 -45 7.5
t-29.5 18.5t-18 25t-9.5 28q-15 -38 -45.5 -58.5t-68.5 -20.5q-34 0 -62 13.5t-48 37.5t-31 56.5t-11 70.5q0 42 13 74.5t34 55t48 34t54 11.5q77 0 108 -69v31q0 13 9.5 21.5t24.5 8.5q16 0 26 -7.5t10 -22.5v-188zM330 150q26 -29 64 -29t63 28.5t25 73.5t-24.5 74
t-63.5 29q-40 0 -65 -28.5t-25 -73.5t26 -74z" />
    <glyph glyph-name="A" unicode="A" horiz-adv-x="683" 
d="M123 29q-7 -17 -16.5 -23t-24.5 -6q-18 0 -31 10.5t-13 28.5q0 8 3 17.5t12 29.5l235 561q9 20 21 31.5t32 11.5t33 -11.5t22 -31.5l234 -561q9 -19 12 -28t3 -15q0 -20 -14 -31.5t-34 -11.5q-18 0 -28.5 10.5t-21.5 38.5l-51 126h-314zM212 251h254l-126 315z" />
    <glyph glyph-name="B" unicode="B" horiz-adv-x="625" 
d="M128 0q-44 0 -44 45v601q0 20 11.5 32t32.5 12h207q53 0 92 -13.5t64 -36.5t37 -54t12 -65q0 -55 -26.5 -92t-62.5 -54q58 -20 89.5 -62.5t31.5 -105.5q0 -47 -15.5 -85.5t-45 -65.5t-71.5 -41.5t-95 -14.5h-217zM174 401h175q24 0 42 9t31 24t19.5 33.5t6.5 38.5
q0 45 -27.5 74.5t-83.5 29.5h-163v-209zM174 80h173q60 0 96.5 33.5t36.5 95.5q0 55 -34 86t-102 31h-170v-246z" />
    <glyph glyph-name="C" unicode="C" horiz-adv-x="690" 
d="M244 15q-59 26 -101.5 72.5t-66 112t-23.5 145.5q0 79 23.5 144.5t66 112.5t101.5 72.5t129 25.5q52 0 93.5 -13t72.5 -31.5t52 -39t32 -35.5q18 -27 18 -49q0 -21 -14 -31.5t-28 -10.5q-21 0 -33 15q-17 21 -36 40.5t-42 34.5t-51.5 23.5t-63.5 8.5q-53 0 -95 -20.5
t-71 -56.5t-45 -85t-16 -106q0 -56 16 -104.5t46 -84.5t73.5 -56.5t97.5 -20.5q63 0 108 26.5t80 74.5q13 17 32 17q17 0 28 -13.5t11 -27.5q0 -8 -2.5 -18t-10.5 -20q-12 -16 -33 -38t-52 -41.5t-72.5 -33.5t-94.5 -14q-70 0 -129 25z" />
    <glyph glyph-name="D" unicode="D" horiz-adv-x="686" 
d="M128 0q-24 0 -34 12t-10 32v602q0 20 11 32t34 12h199q70 0 126 -25t96 -70t61.5 -108t21.5 -138q0 -74 -22 -137.5t-62 -110.5t-96 -74t-125 -27h-200zM174 80h148q51 0 91.5 20t68.5 56t43 85.5t15 107.5t-15 106t-43.5 82.5t-70 53.5t-94.5 19h-143v-530z" />
    <glyph glyph-name="E" unicode="E" horiz-adv-x="584" 
d="M129 0q-22 0 -33.5 12.5t-11.5 32.5v600q0 20 12 32.5t34 12.5h374q19 0 30.5 -11t11.5 -29t-11.5 -29t-30.5 -11h-330v-217h222q19 0 31.5 -11t12.5 -29t-12.5 -29t-31.5 -11h-222v-233h330q20 0 31 -11t11 -29t-11 -29t-31 -11h-375z" />
    <glyph glyph-name="F" unicode="F" horiz-adv-x="567" 
d="M174 44q0 -20 -11.5 -32t-33.5 -12t-33.5 12t-11.5 32v602q0 20 13 32t33 12h362q19 0 30 -11t11 -29t-11 -29t-30 -11h-318v-233h214q20 0 31 -10.5t11 -29.5q0 -18 -11 -28.5t-31 -10.5h-214v-254z" />
    <glyph glyph-name="G" unicode="G" horiz-adv-x="722" 
d="M427 271q-20 0 -32.5 11t-12.5 28q0 18 12.5 29.5t32.5 11.5h186q32 0 43.5 -17.5t11.5 -49.5q0 -62 -20 -115.5t-58 -93.5t-93 -62.5t-124 -22.5t-127.5 25t-101 71.5t-67 112t-24.5 145.5q0 81 24.5 146.5t68 112t102.5 72t127 25.5q78 0 137 -27.5t106 -84.5
q16 -16 21.5 -29t5.5 -24q0 -20 -12 -31.5t-29 -11.5q-11 0 -21.5 5.5t-22.5 21.5q-35 48 -79 70.5t-104 22.5q-54 0 -97 -20.5t-72.5 -56.5t-45.5 -85.5t-16 -106.5q0 -56 16.5 -104.5t47 -84t73 -56t94.5 -20.5q45 0 82 13.5t63.5 38.5t40.5 61t14 80h-150z" />
    <glyph glyph-name="H" unicode="H" horiz-adv-x="707" 
d="M174 44q0 -20 -12.5 -32t-32.5 -12t-32.5 12t-12.5 32v602q0 20 12.5 32t32.5 12t32.5 -12t12.5 -32v-251h359v251q0 20 12.5 32t32.5 12t32.5 -12t12.5 -32v-602q0 -20 -12.5 -32t-32.5 -12t-32.5 12t-12.5 32v272h-359v-272z" />
    <glyph glyph-name="I" unicode="I" horiz-adv-x="257" 
d="M174 44q0 -20 -12.5 -32t-32.5 -12t-32.5 12t-12.5 32v602q0 20 12.5 32t32.5 12t32.5 -12t12.5 -32v-602z" />
    <glyph glyph-name="J" unicode="J" horiz-adv-x="572" 
d="M494 224q0 -60 -19 -104.5t-51 -73t-74 -42.5t-88 -14q-47 0 -81 12t-59 30.5t-41.5 41.5t-28.5 45q-14 28 -14 44q0 23 16 34t31 11q24 0 39 -32q10 -21 21.5 -38.5t28 -31t38.5 -21t52 -7.5q25 0 50 7t45 23.5t32.5 45t12.5 70.5v422q0 20 12.5 32t32.5 12t32.5 -12
t12.5 -32v-422z" />
    <glyph glyph-name="K" unicode="K" horiz-adv-x="614" 
d="M174 46q0 -20 -12.5 -33t-32.5 -13t-32.5 13t-12.5 33v598q0 20 12.5 33t32.5 13t32.5 -13t12.5 -33v-301l292 329q8 9 16.5 13.5t20.5 4.5q18 0 30.5 -12.5t12.5 -28.5q0 -8 -3 -16.5t-12 -18.5l-220 -246l245 -285q12 -13 16 -21t4 -17q0 -22 -15.5 -33.5t-29.5 -11.5
q-23 0 -38 18l-248 286l-71 -80v-178z" />
    <glyph glyph-name="L" unicode="L" horiz-adv-x="549" 
d="M130 0q-22 0 -34 12.5t-12 32.5v601q0 20 12.5 32t32.5 12t32.5 -12t12.5 -32v-566h302q20 0 32 -11t12 -29t-12 -29t-32 -11h-346z" />
    <glyph glyph-name="M" unicode="M" horiz-adv-x="830" 
d="M174 44q0 -20 -12.5 -32t-32.5 -12t-32.5 12t-12.5 32v597q0 23 13 36t36 13q18 0 29.5 -9.5t23.5 -32.5l230 -405l230 405q13 23 25.5 32.5t27.5 9.5q20 0 33.5 -12t13.5 -37v-598q0 -20 -12.5 -32t-32.5 -12t-32.5 12t-12.5 32v468l-204 -363q-8 -15 -17 -22t-23 -7
q-23 0 -39 29l-199 359v-463z" />
    <glyph glyph-name="N" unicode="N" horiz-adv-x="689" 
d="M174 44q0 -20 -12.5 -32t-32.5 -12t-32.5 12t-12.5 32v593q0 23 10 38t33 15q24 0 39 -22l350 -493v471q0 20 12.5 31.5t32.5 11.5q19 0 32 -11.5t13 -31.5v-602q0 -20 -11 -32t-31 -12q-14 0 -23.5 5t-18.5 17l-348 483v-461z" />
    <glyph glyph-name="O" unicode="O" horiz-adv-x="750" 
d="M244 16q-59 26 -101.5 73.5t-66 113t-23.5 143.5q0 79 23.5 144t66 111.5t101.5 72.5t131 26q71 0 130.5 -26t102 -72.5t66 -111.5t23.5 -144q0 -78 -23.5 -143.5t-66 -113t-102 -73.5t-130.5 -26q-72 0 -131 26zM208 155q30 -36 72 -56.5t95 -20.5t95.5 20.5t72 56.5
t45.5 85t16 106t-16 105.5t-46 84t-72.5 56t-94.5 20.5q-53 0 -95.5 -20.5t-72 -56t-45.5 -84t-16 -105.5t16 -106t46 -85z" />
    <glyph glyph-name="P" unicode="P" horiz-adv-x="608" 
d="M174 44q0 -20 -12.5 -32t-32.5 -12t-32.5 12t-12.5 32v602q0 20 12.5 32t32.5 12h193q117 0 180 -61.5t63 -168.5q0 -106 -66 -166.5t-181 -60.5h-144v-189zM174 313h144q81 0 118 40.5t37 106.5q0 72 -40 111t-117 39h-142v-297z" />
    <glyph glyph-name="Q" unicode="Q" horiz-adv-x="750" 
d="M600 0q-26 12 -52 39q-37 -23 -80.5 -36t-92.5 -13q-72 0 -131 26t-101.5 73.5t-66 113t-23.5 143.5q0 79 23.5 144t66 111.5t101.5 72.5t131 26q71 0 130.5 -26t102 -72.5t66 -111.5t23.5 -144q0 -80 -24 -145.5t-68 -113.5q27 -23 55 -23q14 0 22.5 3t19.5 3
q17 0 23.5 -11t6.5 -23q0 -25 -23 -36.5t-55 -11.5q-28 0 -54 12zM375 78q65 0 115 31q-19 20 -40 32t-47 12q-17 0 -27 11t-10 24q0 17 11 28.5t33 11.5q36 0 69 -19.5t63 -53.5q30 36 46 85t16 106t-16 105.5t-46 84t-72.5 56t-94.5 20.5q-53 0 -95.5 -20.5t-72 -56
t-45.5 -84t-16 -105.5t16 -106t46 -85t72 -56.5t95 -20.5z" />
    <glyph glyph-name="R" unicode="R" horiz-adv-x="609" 
d="M174 44q0 -20 -12.5 -32t-32.5 -12t-32.5 12t-12.5 32v601q0 20 12.5 32.5t32.5 12.5h187q113 0 174 -58t61 -157q0 -72 -38 -124.5t-113 -74.5l140 -187q13 -17 16.5 -27.5t3.5 -21.5q0 -14 -11.5 -27t-33.5 -13q-15 0 -26 7.5t-22 21.5l-166 234h-127v-219zM174 343
h140q74 0 109.5 36.5t35.5 95.5q0 64 -39 99.5t-108 35.5h-138v-267z" />
    <glyph glyph-name="S" unicode="S" horiz-adv-x="589" 
d="M97 57q-19 17 -31 31q-8 8 -15.5 19t-7.5 23t4.5 20.5t11.5 13.5t14 7.5t13 2.5q20 0 36 -16q13 -14 29 -28t37 -25.5t48.5 -19t63.5 -7.5q30 0 57 7.5t47.5 21.5t32 34t11.5 45q0 29 -11.5 49t-34.5 34.5t-58.5 26t-83.5 24.5q-34 9 -68.5 22.5t-62.5 35t-46 54
t-18 78.5q0 43 18 78.5t49.5 60t73.5 38t90 13.5q34 0 62 -5.5t50.5 -14.5t40 -19t30.5 -19q15 -10 21.5 -22t6.5 -24q0 -22 -14.5 -32.5t-28.5 -10.5t-22.5 4t-16.5 9q-9 5 -20.5 13t-27.5 15.5t-37.5 12.5t-51.5 5q-64 0 -97 -30.5t-33 -70.5q0 -25 12.5 -43.5t36.5 -32.5
t57.5 -25.5t75.5 -22.5q35 -9 70.5 -21.5t64.5 -34.5t47 -55.5t18 -84.5q0 -40 -16 -76.5t-48 -64t-79 -44t-108 -16.5q-45 0 -81 10t-63.5 25t-47.5 32z" />
    <glyph glyph-name="T" unicode="T" horiz-adv-x="613" 
d="M351 44q0 -20 -12.5 -32t-32.5 -12t-32.5 12t-12.5 32v566h-189q-20 0 -32 11t-12 29t12 29t32 11h469q19 0 31.5 -11t12.5 -29t-12.5 -29t-31.5 -11h-190v-566z" />
    <glyph glyph-name="U" unicode="U" horiz-adv-x="700" 
d="M169 264q0 -89 47.5 -137.5t133.5 -48.5t134 49.5t48 140.5v378q0 20 12.5 32t32.5 12t32.5 -12t12.5 -32v-390q0 -59 -19.5 -108t-55 -84t-85.5 -54.5t-112 -19.5t-112 19t-85.5 54t-54.5 83t-19 107v393q0 20 12.5 32t32.5 12t32.5 -12t12.5 -32v-382z" />
    <glyph glyph-name="V" unicode="V" horiz-adv-x="669" 
d="M380 37q-7 -17 -17 -27t-28 -10t-29 10t-18 27l-246 589q-1 4 -2.5 9.5t-1.5 12.5q0 18 13.5 30t30.5 12q31 0 43 -31l212 -519l211 522q5 11 13.5 19.5t23.5 8.5q20 0 32.5 -10t12.5 -28q0 -8 -2 -14.5t-4 -12.5z" />
    <glyph glyph-name="W" unicode="W" horiz-adv-x="903" 
d="M329 32q-5 -16 -16 -24t-25 -8q-30 0 -41 32l-203 589q-6 18 -6 30q0 14 12.5 26.5t34.5 12.5q18 0 27.5 -11t14.5 -25l162 -498l123 383q5 14 14 23.5t27 9.5t27 -9.5t14 -23.5l123 -383l161 500q5 14 15 24t26 10q17 0 31 -10t14 -29q0 -5 -1 -12.5t-4 -16.5l-203 -590
q-12 -32 -41 -32q-14 0 -25.5 7.5t-16.5 24.5l-123 380z" />
    <glyph glyph-name="X" unicode="X" horiz-adv-x="638" 
d="M135 25q-12 -17 -22.5 -21t-18.5 -4q-20 0 -31.5 13t-11.5 27q0 9 3 16.5t11 18.5l198 282l-190 264q-7 10 -9 16t-2 13q0 14 11 27t32 13q13 0 22 -6.5t18 -18.5l178 -244l170 242q9 14 17.5 20.5t22.5 6.5q18 0 31 -11.5t13 -27.5q0 -10 -3 -18t-13 -21l-185 -264
l197 -270q7 -11 10.5 -19t3.5 -18q0 -15 -12.5 -28t-31.5 -13q-25 0 -44 28l-184 255z" />
    <glyph glyph-name="Y" unicode="Y" horiz-adv-x="629" 
d="M359 44q0 -20 -12.5 -32t-32.5 -12t-32.5 12t-12.5 32v216l-224 361q-7 14 -7 27q0 17 11 29.5t33 12.5q11 0 20.5 -4.5t17.5 -16.5l195 -323l192 318q8 13 16 19.5t25 6.5q15 0 29 -11t14 -28q0 -9 -4 -19t-9 -18l-219 -354v-216z" />
    <glyph glyph-name="Z" unicode="Z" horiz-adv-x="587" 
d="M92 0q-20 0 -31.5 11t-11.5 28q0 16 11 32l359 539h-307q-20 0 -32 10.5t-12 29.5q0 18 12 29t32 11h384q20 0 31 -10.5t11 -27.5q0 -8 -3 -18t-11 -21l-355 -533h321q20 0 32 -11t12 -29t-12 -29t-32 -11h-398z" />
    <glyph glyph-name="bracketleft" unicode="[" horiz-adv-x="320" 
d="M116 -170q-14 0 -23.5 9t-9.5 23v836q0 14 9.5 23t23.5 9h156q15 0 25 -10t10 -28q0 -17 -10 -27.5t-25 -10.5h-99v-748h98q15 0 25 -10t10 -28q0 -17 -10 -27.5t-24 -10.5h-156z" />
    <glyph glyph-name="backslash" unicode="\" horiz-adv-x="405" 
d="M384 69q8 -16 8 -28q0 -19 -13 -30t-29 -11q-14 0 -25 7.5t-21 28.5l-282 583q-3 7 -6 15t-3 15q0 19 13 30t32 11q26 0 42 -34z" />
    <glyph glyph-name="bracketright" unicode="]" horiz-adv-x="320" 
d="M48 -170q-14 0 -24 10.5t-10 27.5q0 18 10 28t24 10h99v748h-100q-14 0 -24 10.5t-10 27.5q0 18 10 28t25 10h156q14 0 23.5 -9t9.5 -23v-836q0 -14 -9.5 -23t-23.5 -9h-156z" />
    <glyph glyph-name="asciicircum" unicode="^" horiz-adv-x="500" 
d="M141 357q-12 -23 -34 -23q-14 0 -24 9.5t-10 21.5q0 14 9 29l138 282q5 11 12.5 17.5t21.5 6.5t21 -6.5t12 -17.5l140 -282q9 -15 9 -29q0 -12 -10 -21.5t-24 -9.5q-21 0 -34 23l-114 241z" />
    <glyph glyph-name="underscore" unicode="_" horiz-adv-x="586" 
d="M98 -67q-16 0 -25.5 9t-9.5 24q0 16 9.5 25t25.5 9h390q16 0 25.5 -9t9.5 -25q0 -15 -9.5 -24t-25.5 -9h-390z" />
    <glyph glyph-name="grave" unicode="`" horiz-adv-x="500" 
d="M171 650q-17 11 -17 33q0 17 13 29t29 12q12 0 22.5 -7.5t18.5 -15.5l102 -98q12 -12 12 -24q0 -11 -8 -19.5t-20 -8.5q-8 0 -19 7z" />
    <glyph glyph-name="a" unicode="a" horiz-adv-x="618" 
d="M452 111q-26 -56 -72.5 -88.5t-110.5 -32.5q-47 0 -88.5 19t-72 53t-48 81.5t-17.5 105.5t18.5 106.5t50 83t73.5 53.5t90 19q66 0 109 -31t68 -84v68q0 17 11.5 27t31.5 10t32 -10t12 -27v-336q0 -20 6 -34.5t23 -14.5q12 0 19.5 -9t7.5 -26q0 -44 -54 -44q-23 0 -39 7
t-26.5 19t-16 28t-7.5 34v23zM178 119q21 -23 50.5 -36t64.5 -13q33 0 62 13t50.5 36t34 56t12.5 73t-12 74t-33 58.5t-50 38t-64 13.5q-37 0 -66.5 -14t-50.5 -38.5t-32 -58t-11 -73.5q0 -39 12 -72t33 -57z" />
    <glyph glyph-name="b" unicode="b" horiz-adv-x="613" 
d="M161 42q0 -16 -11.5 -29t-33.5 -13t-32.5 12.5t-10.5 29.5v606q0 18 12.5 30t31.5 12t31.5 -12t12.5 -30v-252q24 51 68 83t109 32q51 0 93.5 -19.5t73 -54t47.5 -82.5t17 -105t-18.5 -105t-50 -82.5t-75 -53.5t-92.5 -19q-60 0 -105 30.5t-67 83.5v-62zM205 122
q21 -24 50 -38t65 -14t65 14t50 38.5t32.5 57.5t11.5 70q0 38 -11.5 71.5t-32.5 58t-50 38.5t-65 14q-35 0 -64.5 -14t-50.5 -38.5t-32.5 -57.5t-11.5 -72q0 -38 11.5 -71t32.5 -57z" />
    <glyph glyph-name="c" unicode="c" horiz-adv-x="529" 
d="M485 113q0 -22 -14 -35q-26 -35 -72.5 -61.5t-112.5 -26.5q-54 0 -99 20t-77 55t-49.5 82.5t-17.5 103.5q0 55 18.5 102.5t51 82.5t77 55t96.5 20q66 0 112.5 -25.5t73.5 -60.5q8 -11 13.5 -21.5t5.5 -21.5q0 -20 -12.5 -29.5t-26.5 -9.5q-12 0 -19.5 5t-12.5 11
q-6 8 -17 20.5t-27 24t-38 20t-50 8.5q-35 0 -64 -14.5t-49 -39.5t-31 -58t-11 -70t11 -70t31 -57.5t48.5 -38.5t63.5 -14q39 0 71 18t58 48q15 15 31 15q13 0 25.5 -9.5t12.5 -28.5z" />
    <glyph glyph-name="d" unicode="d" horiz-adv-x="613" 
d="M452 111q-27 -55 -72 -88t-108 -33q-47 0 -89 18.5t-73 52t-49 81.5t-18 107t18.5 107t50 82.5t74.5 53.5t91 19q67 0 108.5 -31.5t66.5 -83.5v252q0 18 12.5 30t31.5 12t31 -12t12 -30v-603q0 -23 -12 -34t-32 -11q-22 0 -32.5 12.5t-10.5 29.5v69zM178 120
q21 -24 50.5 -37t64.5 -13q33 0 62 13t50.5 36t34 56t12.5 74q0 40 -12 73.5t-33.5 58t-50.5 38t-63 13.5q-37 0 -66.5 -14t-50.5 -38.5t-32 -58t-11 -72.5t12 -72t33 -57z" />
    <glyph glyph-name="e" unicode="e" horiz-adv-x="561" 
d="M130 236q6 -75 49 -120.5t115 -45.5q48 0 82.5 17t54.5 35q13 8 22 8q17 0 28 -12.5t11 -27.5q0 -11 -5.5 -20t-12.5 -14q-29 -27 -77 -46.5t-109 -19.5q-55 0 -100 19.5t-77.5 54t-50 81.5t-17.5 103t18.5 104t51.5 83.5t77.5 55.5t96.5 20q50 0 91.5 -17.5t71 -47
t46 -68t16.5 -80.5q0 -27 -9 -44.5t-38 -17.5h-335zM426 292q2 25 -7 50t-27.5 45t-45.5 32.5t-60 12.5q-57 0 -100 -37t-54 -103h294z" />
    <glyph glyph-name="f" unicode="f" horiz-adv-x="366" 
d="M161 42q0 -18 -12 -30t-32 -12q-19 0 -31.5 12t-12.5 30v434q0 107 53 165.5t146 58.5q20 0 34 -1.5t20 -3.5q18 -5 25.5 -16.5t7.5 -23.5q0 -21 -11.5 -30.5t-27.5 -9.5q-11 0 -21 1.5t-26 1.5q-57 0 -82 -31t-29 -93h102q17 0 28.5 -11t11.5 -28q0 -18 -11.5 -29.5
t-28.5 -11.5h-103v-372z" />
    <glyph glyph-name="g" unicode="g" horiz-adv-x="610" 
d="M452 111q-29 -56 -74 -88.5t-109 -32.5q-47 0 -88 18.5t-72 52.5t-48.5 81.5t-17.5 105.5q0 59 18.5 107.5t50.5 83t74 53.5t89 19q69 0 111 -33t66 -82v68q0 16 11.5 26.5t31.5 10.5q23 0 33.5 -11t10.5 -26v-422q0 -120 -63 -181t-176 -61q-50 0 -88 11t-67 28
q-25 12 -25 36q0 17 9.5 28t25.5 11q12 0 25.5 -5.5t31 -12.5t40.5 -12.5t54 -5.5q77 0 111.5 44.5t34.5 120.5v68zM179 120q22 -24 51 -37t62 -13t62.5 13t51 36.5t34 56.5t12.5 73t-12 73.5t-33 58t-50.5 38t-64.5 13.5t-64.5 -14t-50.5 -38.5t-32.5 -58t-11.5 -72.5
t12.5 -72t33.5 -57z" />
    <glyph glyph-name="h" unicode="h" horiz-adv-x="570" 
d="M161 42q0 -18 -12.5 -30t-31.5 -12t-31.5 12t-12.5 30v606q0 18 12 30t32 12q21 0 32.5 -12t11.5 -30v-232q20 42 57.5 68.5t94.5 26.5q46 0 81.5 -15t59.5 -42t36 -64t12 -81v-267q0 -18 -13 -30t-31 -12q-19 0 -31.5 12t-12.5 30v242q0 66 -33 107t-94 41t-93.5 -41.5
t-32.5 -108.5v-240z" />
    <glyph glyph-name="i" unicode="i" horiz-adv-x="239" 
d="M81 594q-14 13 -14 38q0 24 14 37.5t37 13.5t37.5 -13.5t14.5 -37.5q0 -26 -14.5 -38.5t-37.5 -12.5t-37 13zM161 127q0 -21 6 -34t23 -13q14 0 20 -11t6 -25q0 -20 -12 -32t-38 -12q-48 0 -70.5 30t-22.5 92v337q0 18 12 30t32 12t32 -12t12 -30v-332z" />
    <glyph glyph-name="j" unicode="j" horiz-adv-x="234" 
d="M161 -9q0 -85 -39 -133t-119 -48q-29 0 -42.5 12.5t-13.5 29.5t10.5 28t30.5 11q29 0 46 9.5t25.5 25t11 36t2.5 42.5v455q0 18 12 30t32 12t32 -12t12 -30v-468zM79 594q-14 13 -14 38q0 24 14 37.5t37 13.5t37.5 -13.5t14.5 -37.5q0 -26 -14.5 -38.5t-37.5 -12.5
t-37 13z" />
    <glyph glyph-name="k" unicode="k" horiz-adv-x="525" 
d="M161 42q0 -17 -11 -29.5t-33 -12.5t-33 12.5t-11 29.5v606q0 17 10.5 29.5t33.5 12.5t33.5 -12.5t10.5 -29.5v-369l232 202q9 8 18.5 14t20.5 6q19 0 29 -12t10 -26q0 -13 -5.5 -21.5t-14.5 -16.5l-167 -143l187 -209q6 -7 10.5 -14.5t4.5 -18.5q0 -20 -13.5 -30
t-28.5 -10q-11 0 -18.5 4t-15.5 13l-189 211l-60 -51v-135z" />
    <glyph glyph-name="l" unicode="l" horiz-adv-x="239" 
d="M161 127q0 -21 6 -34t23 -13q14 0 20 -11t6 -25q0 -20 -12 -32t-38 -12q-48 0 -70.5 30t-22.5 92v526q0 17 12 29.5t32 12.5t32 -12.5t12 -29.5v-521z" />
    <glyph glyph-name="m" unicode="m" horiz-adv-x="829" 
d="M161 42q0 -17 -12 -29.5t-32 -12.5q-19 0 -31.5 11.5t-12.5 30.5v417q0 19 12 30.5t34 11.5q18 0 30 -10t12 -29v-46q17 41 50 68t87 27q57 0 94 -27.5t54 -76.5q18 48 52 76t90 28q85 0 129 -52t44 -142v-275q0 -17 -12 -29.5t-32 -12.5t-32 12.5t-12 29.5v269
q0 55 -27.5 88t-78.5 33q-50 0 -78 -33t-28 -88v-268q0 -18 -12 -30.5t-32 -12.5t-32 12.5t-12 30.5v268q0 55 -27.5 88t-78.5 33q-50 0 -78 -33t-28 -88v-269z" />
    <glyph glyph-name="n" unicode="n" horiz-adv-x="575" 
d="M161 42q0 -17 -12 -29.5t-32 -12.5q-18 0 -31 11.5t-13 30.5v421q0 14 11 26t34 12t33 -11.5t10 -25.5v-48q20 44 61 69.5t97 25.5q93 0 140.5 -55.5t47.5 -146.5v-267q0 -17 -12.5 -29.5t-31.5 -12.5t-31 12.5t-12 29.5v242q0 67 -33.5 107.5t-93.5 40.5
q-63 0 -97.5 -41.5t-34.5 -108.5v-240z" />
    <glyph glyph-name="o" unicode="o" horiz-adv-x="582" 
d="M190 10q-45 20 -77.5 55t-50.5 82.5t-18 102.5t18 103t50.5 83t78 55t100.5 20t100.5 -20t78 -55t50.5 -83t18 -103t-18 -102.5t-50.5 -82.5t-78 -55t-100.5 -20t-101 20zM175 123q20 -25 49 -39t67 -14q37 0 66.5 14t49.5 38t30.5 56.5t10.5 70.5t-10.5 71.5t-30.5 58
t-49.5 39t-66.5 14.5t-66 -14t-49.5 -38.5t-31 -57.5t-10.5 -71t10.5 -70.5t30.5 -57.5z" />
    <glyph glyph-name="p" unicode="p" horiz-adv-x="612" 
d="M161 -148q0 -18 -12 -30t-31 -12q-20 0 -32.5 12t-12.5 30v612q0 14 11 25.5t34 11.5t33 -11t10 -26v-68q24 48 67.5 81.5t109.5 33.5q51 0 93 -19.5t73 -54t48 -82.5t17 -105q0 -56 -17.5 -103.5t-48 -82.5t-73.5 -54.5t-94 -19.5q-63 0 -107.5 31.5t-67.5 84.5v-254z
M205 122q21 -24 50.5 -38t64.5 -14q36 0 65 14t50 38t32.5 57t11.5 71t-11.5 71.5t-32.5 58t-50 38.5t-65 14q-35 0 -64.5 -14t-50.5 -39t-32.5 -58t-11.5 -71t11.5 -71t32.5 -57z" />
    <glyph glyph-name="q" unicode="q" horiz-adv-x="612" 
d="M539 -148q0 -18 -12 -30t-31 -12q-20 0 -32.5 12t-12.5 30v254q-29 -57 -74.5 -86.5t-107.5 -29.5q-47 0 -88.5 18t-72 52t-48 81.5t-17.5 106.5q0 56 17.5 104t48 83.5t73 55.5t93.5 20q68 0 111 -32t65 -83v68q0 15 11 26t33 11q17 0 30.5 -9.5t13.5 -27.5v-612z
M178 120q22 -24 51 -37t63 -13q33 0 62 13t50.5 36.5t34 56.5t12.5 73t-12 73.5t-33 58t-50.5 38t-63.5 13.5q-35 0 -64.5 -13.5t-50.5 -38t-32.5 -58t-11.5 -73.5q0 -39 12 -72t33 -57z" />
    <glyph glyph-name="r" unicode="r" horiz-adv-x="384" 
d="M161 42q0 -19 -13 -30.5t-31 -11.5q-19 0 -31.5 11.5t-12.5 30.5v420q0 16 11 27.5t31 11.5q41 0 41 -39v-57q23 48 62.5 77t101.5 29q24 0 35 -10.5t11 -27.5q0 -18 -10.5 -30t-32.5 -12q-34 0 -63.5 -11t-51.5 -33t-34.5 -54t-12.5 -74v-217z" />
    <glyph glyph-name="s" unicode="s" horiz-adv-x="468" 
d="M130 9q-43 20 -71 53q-14 14 -14 33q0 13 11 26t26 13q9 0 17.5 -4.5t14.5 -9.5q19 -19 47.5 -36t72.5 -17q45 0 72 18t27 52q0 26 -20 42t-50.5 28t-66.5 23q-35 12 -65.5 29.5t-50.5 43.5t-20 68q0 31 13.5 57t37 44.5t56 28.5t71.5 10q54 0 91.5 -17t58.5 -39
q8 -8 11 -16.5t3 -16.5q0 -12 -8.5 -25.5t-25.5 -13.5q-7 0 -15 4t-15 9q-14 11 -38 25t-61 14q-35 0 -62 -14.5t-27 -48.5q0 -24 20 -38.5t47.5 -25.5t55.5 -20q6 -3 27.5 -9.5t52 -24t50.5 -43t20 -65.5q0 -34 -13.5 -62.5t-38.5 -49.5t-60 -32.5t-78 -11.5q-60 0 -103 19
z" />
    <glyph glyph-name="t" unicode="t" horiz-adv-x="377" 
d="M196 151q0 -43 14.5 -62t44.5 -19q29 0 42.5 8t24.5 8q15 0 23.5 -11.5t8.5 -23.5q0 -24 -18 -36q-18 -14 -43 -19.5t-53 -5.5q-37 0 -62 12t-40.5 33t-22 48.5t-6.5 58.5v281h-41q-17 0 -28.5 10.5t-11.5 28.5q0 17 11.5 28t28.5 11h41v85q0 19 12 31t32 12t31.5 -12
t11.5 -31v-85h96q17 0 28.5 -10.5t11.5 -28.5q0 -17 -11.5 -28t-28.5 -11h-96v-272z" />
    <glyph glyph-name="u" unicode="u" horiz-adv-x="549" 
d="M159 197q0 -57 29.5 -92t86.5 -35t86.5 35t29.5 92v262q0 18 12.5 30t31.5 12t31 -12t12 -30v-260q0 -45 -13.5 -83.5t-39.5 -66.5t-64 -43.5t-86 -15.5q-49 0 -87 15.5t-64 43.5t-39.5 66.5t-13.5 83.5v260q0 18 12.5 30t31.5 12q18 0 31 -12t13 -30v-262z" />
    <glyph glyph-name="v" unicode="v" horiz-adv-x="520" 
d="M303 31q-8 -16 -17.5 -23.5t-26.5 -7.5t-26.5 7.5t-17.5 24.5l-177 401q-3 5 -5.5 13t-2.5 14q0 18 12.5 29.5t32.5 11.5q18 0 27 -9t12 -17l146 -349l147 347q5 12 13.5 20t22.5 8q21 0 34 -11t13 -31q0 -10 -5 -22z" />
    <glyph glyph-name="w" unicode="w" horiz-adv-x="725" 
d="M273 32q-5 -18 -18 -25t-25 -7q-31 0 -44 32l-152 403q-3 8 -4.5 13t-1.5 10q0 23 15.5 33t32.5 10q30 0 39 -28l119 -340l87 276q5 18 17 25t25 7t24.5 -7t17.5 -24l91 -277l116 337q10 31 39 31q21 0 33.5 -11t12.5 -31q0 -4 -0.5 -9.5t-4.5 -14.5l-153 -404
q-6 -15 -17 -23t-25 -8q-15 0 -26.5 7.5t-16.5 25.5l-92 279z" />
    <glyph glyph-name="x" unicode="x" horiz-adv-x="498" 
d="M121 22q-7 -9 -16 -15.5t-21 -6.5q-17 0 -29 11t-12 26t10 30l138 189l-132 176q-8 10 -10.5 17t-2.5 15q0 15 12.5 26t30.5 11q16 0 25 -7.5t18 -18.5l125 -166l129 174q11 18 30 18q14 0 28.5 -9.5t14.5 -26.5q0 -15 -10 -28l-144 -192l131 -172q14 -17 14 -33
q0 -17 -12 -28.5t-29 -11.5q-25 0 -42 23l-127 167z" />
    <glyph glyph-name="y" unicode="y" horiz-adv-x="505" 
d="M275 -35q-18 -42 -36 -71.5t-39.5 -48t-48 -27t-61.5 -8.5q-54 0 -54 39q0 19 10.5 30t33.5 11q27 0 45.5 6t32 16.5t22 25.5t16.5 33l13 34l-176 430q-5 13 -5 24q0 19 14 30.5t34 11.5q28 0 38 -27l137 -363l143 362q5 12 13.5 20t23.5 8q17 0 30 -11t13 -29
q0 -8 -2 -15t-4 -12z" />
    <glyph glyph-name="z" unicode="z" horiz-adv-x="455" 
d="M78 0q-20 0 -30.5 11.5t-10.5 29.5q0 16 13 33l253 348h-210q-19 0 -30.5 11t-11.5 29q0 17 11.5 28t30.5 11h283q21 0 31.5 -10.5t10.5 -26.5q0 -9 -4.5 -18.5t-12.5 -20.5l-250 -345h227q19 0 30 -10t11 -29q0 -20 -11 -30.5t-30 -10.5h-300z" />
    <glyph glyph-name="braceleft" unicode="{" horiz-adv-x="349" 
d="M218 49q0 -71 16.5 -102.5t58.5 -31.5q19 0 30.5 -12t11.5 -31q0 -17 -11.5 -29.5t-36.5 -12.5q-47 0 -77.5 16.5t-48.5 45.5t-25.5 69t-7.5 87v133q0 55 -46 55q-20 0 -29 12t-9 32q0 18 9 31t29 13q46 0 46 55v133q0 47 7.5 87t25.5 69t48.5 45.5t77.5 16.5
q25 0 36.5 -12.5t11.5 -29.5q0 -19 -11.5 -31t-30.5 -12q-42 0 -58.5 -31.5t-16.5 -103.5v-130q0 -35 -12.5 -61t-46.5 -39q34 -13 46.5 -39t12.5 -61v-131z" />
    <glyph glyph-name="bar" unicode="|" horiz-adv-x="266" 
d="M178 -146q0 -20 -12.5 -32t-32.5 -12t-32.5 12t-12.5 32v910q0 20 12.5 32t32.5 12t32.5 -12t12.5 -32v-910z" />
    <glyph glyph-name="braceright" unicode="}" horiz-adv-x="349" 
d="M221 48q0 -47 -7.5 -87t-25.5 -69t-49 -45.5t-78 -16.5q-25 0 -36.5 12.5t-11.5 29.5q0 19 12 31t30 12q42 0 59 31.5t17 102.5v131q0 35 12.5 61t46.5 39q-34 13 -46.5 39t-12.5 61v130q0 72 -17 103.5t-59 31.5q-18 0 -30 12t-12 31q0 17 11.5 29.5t36.5 12.5
q47 0 78 -16.5t49 -45.5t25.5 -69t7.5 -87v-133q0 -55 45 -55q21 0 30 -13t9 -31q0 -20 -9 -32t-30 -12q-45 0 -45 -55v-133z" />
    <glyph glyph-name="asciitilde" unicode="~" 
d="M145 325q2 8 10 17q12 17 36 33t62 16q24 0 40.5 -6.5t29.5 -14.5t26 -14.5t31 -6.5q30 0 50 26q10 11 22 11q13 0 22.5 -9.5t9.5 -21.5q0 -15 -10 -28q-14 -20 -35.5 -34.5t-50.5 -14.5q-24 0 -41.5 6.5t-32 14.5t-28 14.5t-30.5 6.5q-22 0 -35.5 -7t-24.5 -19
q-8 -10 -23 -10q-11 0 -20 8t-9 20q0 6 1 13z" />
    <glyph glyph-name="uni00A0" unicode="&#xa0;" horiz-adv-x="213" 
 />
    <glyph glyph-name="exclamdown" unicode="&#xa1;" horiz-adv-x="286" 
d="M191 -130q2 -25 -9 -42t-39 -17q-27 0 -38 17t-11 43l9 398q0 17 10.5 29.5t29.5 12.5q18 0 27.5 -12.5t10.5 -29.5zM100 408q-17 16 -17 44t17 43.5t43 15.5q27 0 43.5 -15.5t16.5 -43.5t-16.5 -44t-43.5 -16q-26 0 -43 16z" />
    <glyph glyph-name="cent" unicode="&#xa2;" 
d="M288 -5q-44 9 -79 31.5t-60 56.5t-38.5 76.5t-13.5 91.5q0 48 14 90.5t39.5 75.5t60.5 56t77 32v70q0 20 12.5 32t32.5 12t32.5 -12t12.5 -32v-67q51 -7 87.5 -30.5t59.5 -52.5q8 -11 13.5 -21.5t5.5 -21.5q0 -20 -12.5 -29.5t-25.5 -9.5q-12 0 -20 5t-13 11
q-6 8 -17 20.5t-27 24t-38 20t-50 8.5q-35 0 -63.5 -14.5t-48.5 -39.5t-31 -58t-11 -70t10.5 -70t30.5 -57.5t48.5 -38.5t63.5 -14q39 0 71.5 18t58.5 48q8 8 16 11.5t14 3.5q14 0 26 -9.5t12 -28.5q0 -22 -13 -35q-23 -30 -59.5 -54t-87.5 -31v-67q0 -20 -12.5 -32
t-32.5 -12t-32.5 12t-12.5 32v69z" />
    <glyph glyph-name="sterling" unicode="&#xa3;" 
d="M107 0q-20 0 -32 10.5t-12 29.5t12.5 30t33.5 11q26 0 50 9t42.5 26t29.5 41t11 54q0 5 -0.5 9.5t-1.5 9.5h-93q-15 0 -24.5 9.5t-9.5 24.5t9.5 25t25.5 10h67q-13 24 -28.5 49.5t-29 53t-22.5 58t-9 65.5q0 38 15 70.5t41.5 56t62 37t77.5 13.5q51 0 92 -20t64 -56
q11 -15 17.5 -33.5t6.5 -38.5q0 -21 -11.5 -33.5t-32.5 -12.5q-16 0 -26 9.5t-15 26.5q-6 35 -30 53.5t-69 18.5q-47 0 -73.5 -26t-26.5 -68q0 -32 11 -60.5t26.5 -55t32.5 -53t29 -54.5h112q15 0 25 -10t10 -25t-10 -24.5t-25 -9.5h-94v-10q0 -47 -25 -83.5t-76 -55.5h185
q30 0 46.5 4t23.5 18q6 10 10.5 20.5t10.5 19t13.5 13.5t18.5 5q17 0 27.5 -12t10.5 -29q0 -51 -34.5 -85.5t-114.5 -34.5h-324z" />
    <glyph glyph-name="currency" unicode="&#xa4;" 
d="M183 138q-11 -12 -25 -12q-13 0 -24 9.5t-11 24.5t11 26l27 27q-27 45 -27 104t28 104l-27 28q-12 12 -12 24q0 14 9.5 24.5t25.5 10.5q14 0 25 -11l26 -27q21 15 47 23.5t56 8.5q31 0 57 -8.5t48 -24.5l28 28q11 11 25 11q13 0 24 -10t11 -25q0 -14 -11 -25l-31 -31
q12 -22 19 -47t7 -53q0 -29 -7 -54t-19 -47l31 -31q11 -10 11 -25q0 -13 -10 -23.5t-24 -10.5q-15 0 -26 11l-28 27q-44 -33 -105 -33t-104 32zM239 236q12 -15 30.5 -24.5t42.5 -9.5t42 9t30.5 24.5t19 36t6.5 44.5t-6.5 44.5t-19 36.5t-30.5 25t-42 9q-48 0 -73 -32.5
t-25 -80.5q0 -24 6.5 -45t18.5 -37z" />
    <glyph glyph-name="yen" unicode="&#xa5;" 
d="M137 112q-15 0 -25 9.5t-10 24.5t10 25t25 10h133v79l-5 7h-128q-15 0 -25 10t-10 25t10 24.5t25 9.5h85l-177 285q-7 14 -7 27q0 17 11 29.5t33 12.5q11 0 20.5 -4.5t17.5 -16.5l195 -323l192 318q8 13 16 19.5t25 6.5q15 0 29 -11t14 -28q0 -9 -4 -19t-9 -18l-171 -278
h87q15 0 25 -9.5t10 -24.5t-10 -25t-25 -10h-130l-4 -7v-79h134q15 0 25 -10t10 -25t-10 -24.5t-25 -9.5h-134v-68q0 -20 -12.5 -32t-32.5 -12t-32.5 12t-12.5 32v68h-133z" />
    <glyph glyph-name="brokenbar" unicode="&#xa6;" horiz-adv-x="266" 
d="M178 454q0 -20 -12.5 -32t-32.5 -12t-32.5 12t-12.5 32v310q0 20 12.5 32t32.5 12t32.5 -12t12.5 -32v-310zM178 -146q0 -20 -12.5 -32t-32.5 -12t-32.5 12t-12.5 32v310q0 20 12.5 32t32.5 12t32.5 -12t12.5 -32v-310z" />
    <glyph glyph-name="section" unicode="&#xa7;" horiz-adv-x="474" 
d="M78 420q15 24 39 41q-24 17 -39 40.5t-15 58.5q0 31 13.5 56.5t37 44t56 29t70.5 10.5q54 0 91.5 -17t59.5 -39q8 -8 11 -16.5t3 -16.5q0 -13 -9 -26t-25 -13q-7 0 -15 4t-15 9q-14 11 -38 24.5t-61 13.5q-35 0 -62 -14t-27 -49q0 -25 20 -40t50.5 -26t65.5 -22
q36 -11 66.5 -27t50.5 -41t20 -65q0 -34 -12.5 -59t-35.5 -43q21 -16 34.5 -38t13.5 -54q0 -33 -13.5 -61.5t-38.5 -49.5t-60 -32.5t-78 -11.5q-60 0 -103 19.5t-72 52.5q-13 14 -13 33q0 13 10.5 26t26.5 13q9 0 17.5 -4.5t13.5 -9.5q19 -19 47.5 -36t73.5 -17t72 18t27 52
q0 26 -20 41.5t-50.5 27t-49.5 17t-21 5.5q-33 11 -62.5 27t-49.5 41.5t-20 67.5q0 33 15 56zM254 291q30 -9 60 -21q14 9 22.5 21.5t8.5 34.5t-14.5 36.5t-38 25.5t-52.5 20t-58 20q-16 -7 -27 -20t-11 -36q0 -22 15.5 -36t28.5 -20t15 -7q23 -10 51 -18z" />
    <glyph glyph-name="dieresis" unicode="&#xa8;" horiz-adv-x="500" 
d="M136 599q-12 12 -12 35t12.5 35.5t34.5 12.5q20 0 34 -12.5t14 -35.5q0 -24 -13 -35t-35 -11t-35 11zM294 600q-13 12 -13 35t12.5 35t34.5 12q20 0 34 -12t14 -35q0 -25 -13.5 -36t-34.5 -11t-34 12z" />
    <glyph glyph-name="copyright" unicode="&#xa9;" horiz-adv-x="772" 
d="M245 15q-63 26 -108.5 72t-70.5 110.5t-25 141.5q0 79 25 144.5t70.5 113t109 74t139.5 26.5t139.5 -25.5t109 -71.5t70.5 -110.5t25 -141.5q0 -79 -25 -144.5t-70.5 -113t-109 -74t-139.5 -26.5t-140 25zM182 136q37 -38 88.5 -60.5t114.5 -22.5t114.5 22t88 61t57 93
t20.5 119q0 60 -20 112t-57 90.5t-88.5 61t-114.5 22.5t-114.5 -21.5t-88 -60.5t-57 -93t-20.5 -119q0 -60 20 -112.5t57 -91.5zM452 211q23 14 44 40q11 11 25 11q13 0 21.5 -11.5t8.5 -22.5q0 -6 -2 -13.5t-9 -15.5q-8 -11 -21 -23.5t-32 -23t-43 -18t-55 -7.5
q-44 0 -80 15t-62 43t-40 67.5t-14 88.5q0 48 14 88t40 68.5t62 44t80 15.5q33 0 59.5 -8.5t45.5 -20t31 -24t18 -20.5q5 -8 7.5 -16t2.5 -15q0 -17 -11.5 -25.5t-22.5 -8.5q-15 0 -25 11q-21 24 -44 40.5t-61 16.5q-57 0 -89.5 -40.5t-32.5 -106.5q0 -63 33.5 -103
t93.5 -40q35 0 58 14z" />
    <glyph glyph-name="ordfeminine" unicode="&#xaa;" horiz-adv-x="438" 
d="M308 408q-17 -38 -49 -59.5t-74 -21.5q-32 0 -60.5 13t-50 37t-34 58t-12.5 76t13 76t35.5 58.5t52 38t62.5 13.5q45 0 72.5 -20t43.5 -54v34q0 15 11 24t28 9q18 0 28.5 -9t10.5 -24v-220q0 -15 4 -24t14 -9q22 0 22 -30q0 -40 -49 -40q-34 0 -50 18.5t-18 43.5v12z
M136 428q29 -31 72 -31q42 0 71 30.5t29 82.5t-27.5 84t-72.5 32q-47 0 -73.5 -32t-26.5 -83t28 -83z" />
    <glyph glyph-name="guillemotleft" unicode="&#xab;" horiz-adv-x="589" 
d="M53 221q-15 12 -15 28q0 11 5 17.5t10 11.5l202 162q5 4 11.5 7t14.5 3q13 0 22.5 -10t9.5 -24q0 -8 -2.5 -15.5t-10.5 -13.5l-176 -136l174 -140q15 -12 15 -29q0 -13 -9 -23t-23 -10q-8 0 -14.5 3t-11.5 7zM289 221q-15 12 -15 28q0 11 5 17.5t10 11.5l202 162
q5 4 11.5 7t14.5 3q13 0 22.5 -10t9.5 -24q0 -8 -2.5 -15.5t-10.5 -13.5l-176 -136l174 -140q15 -12 15 -29q0 -13 -9 -23t-23 -10q-8 0 -14.5 3t-11.5 7z" />
    <glyph glyph-name="logicalnot" unicode="&#xac;" 
d="M159 370q-16 0 -25.5 9.5t-9.5 24.5t9.5 24.5t25.5 9.5h311q15 0 24.5 -9.5t9.5 -24.5v-173q0 -16 -9.5 -25.5t-24.5 -9.5t-24.5 9.5t-9.5 25.5v139h-277z" />
    <glyph glyph-name="uni00AD" unicode="&#xad;" horiz-adv-x="417" 
 />
    <glyph glyph-name="registered" unicode="&#xae;" horiz-adv-x="650" 
d="M208 132q-53 22 -91 61t-59.5 93t-21.5 119t21.5 119.5t59.5 94t91.5 61.5t116.5 22q64 0 117 -22t91.5 -61t60 -93t21.5 -118q0 -65 -21.5 -119.5t-60 -94t-91.5 -61.5t-117 -22q-63 0 -117 21zM160 237q30 -31 72 -49.5t94 -18.5q51 0 93 17.5t72 49t46.5 75.5t16.5 97
q0 49 -16.5 92t-46.5 74.5t-72 50t-94 18.5q-51 0 -93 -17.5t-72 -49t-46.5 -75t-16.5 -96.5q0 -50 16.5 -93t46.5 -75zM277 282q0 -15 -9.5 -24t-24.5 -9t-24.5 9t-9.5 24v253q0 15 9.5 24.5t24.5 9.5h91q57 0 90.5 -29t33.5 -77q0 -33 -16 -57.5t-47 -37.5l49 -55
q11 -10 13.5 -18t2.5 -16q0 -11 -8.5 -20.5t-25.5 -9.5q-11 0 -19.5 5.5t-15.5 13.5l-71 88h-43v-74zM277 415h57q26 0 40.5 12.5t14.5 35.5t-15.5 35t-40.5 12h-56v-95z" />
    <glyph glyph-name="macron" unicode="&#xaf;" horiz-adv-x="500" 
d="M148 616q-16 0 -26 11t-10 26q0 16 10 26.5t26 10.5h204q16 0 26 -10.5t10 -26.5q0 -15 -10 -26t-26 -11h-204z" />
    <glyph glyph-name="degree" unicode="&#xb0;" horiz-adv-x="391" 
d="M140 408q-25 11 -43 31t-28.5 47t-10.5 60q0 32 10.5 59t28.5 47t43 31.5t55 11.5t55.5 -11.5t44 -31.5t28.5 -47t10 -59q0 -33 -10 -60t-28.5 -47t-44 -31t-55.5 -11t-55 11zM137 486q10 -12 24.5 -19.5t33.5 -7.5t33.5 7.5t24.5 20t14.5 28t4.5 31.5q0 15 -4.5 30.5
t-14.5 28t-24.5 20.5t-33.5 8t-33.5 -8t-24 -20.5t-14 -28t-4.5 -30.5q0 -16 4.5 -31.5t13.5 -28.5z" />
    <glyph glyph-name="plusminus" unicode="&#xb1;" 
d="M160 283q-16 0 -26 9.5t-10 24.5t10 24.5t26 9.5h120v110q0 15 10 25t24 10q15 0 25 -10t10 -25v-110h119q16 0 26 -9.5t10 -24.5t-10 -24.5t-26 -9.5h-120v-110q0 -16 -9.5 -26t-24.5 -10t-24.5 10t-9.5 26v110h-120zM160 0q-16 0 -26 10t-10 25q0 14 10 24t26 10h308
q16 0 26 -10t10 -25t-10 -24.5t-26 -9.5h-308z" />
    <glyph glyph-name="uni00B2" unicode="&#xb2;" horiz-adv-x="339" 
d="M82 343q-11 0 -24 6.5t-13 24.5q0 8 4 16t9 13l115 104q34 31 47 51t13 39q0 17 -14 28t-41 11q-25 0 -40 -8t-23 -21q-14 -17 -33 -17q-14 1 -23.5 8.5t-9.5 24.5q0 12 9 26t25.5 25t40.5 18.5t54 7.5q57 0 92.5 -26.5t35.5 -75.5q0 -31 -18 -58.5t-56 -59.5l-82 -74
h131q17 0 26.5 -9t9.5 -23t-9.5 -22.5t-26.5 -8.5h-199z" />
    <glyph glyph-name="uni00B3" unicode="&#xb3;" horiz-adv-x="339" 
d="M155 498q-14 0 -25 8t-11 22q0 15 11.5 21.5t27.5 6.5h14q25 0 39 12t14 29q0 20 -16 31t-41 11q-22 0 -37.5 -5.5t-29.5 -14.5q-11 -6 -20 -6q-12 0 -21.5 8t-9.5 21q0 15 18 29q9 8 34.5 18.5t67.5 10.5q60 0 95 -27t35 -64q0 -24 -15.5 -45t-45.5 -31q38 -8 56 -32
t18 -50t-11 -47t-30.5 -36t-46.5 -23t-58 -8q-36 0 -63 7.5t-49 23.5q-17 12 -17 28q0 14 10.5 22.5t24.5 8.5q9 0 19 -5q17 -11 33.5 -16.5t39.5 -5.5q35 0 55.5 13.5t20.5 36.5q0 22 -16.5 35t-50.5 13h-19z" />
    <glyph glyph-name="acute" unicode="&#xb4;" horiz-adv-x="500" 
d="M200 558q-10 -7 -18 -7q-12 0 -20 8.5t-8 19.5q0 12 12 24l102 98q8 8 18.5 15.5t22.5 7.5q16 0 29 -12t13 -29q0 -21 -18 -33z" />
    <glyph glyph-name="mu" unicode="&#xb5;" horiz-adv-x="560" 
d="M162 -127q0 -22 -9.5 -42.5t-33.5 -20.5q-13 0 -21.5 6t-14 15.5t-7.5 21t-2 23.5v564q0 9 1.5 20t6.5 20t14 15t23 6q23 0 33 -11t10 -26v-267q0 -57 29.5 -92t86.5 -35q55 0 85 34t31 89v242q0 11 2 23t7 21.5t13.5 15.5t21.5 6q12 0 20.5 -6t14 -15.5t7.5 -21.5t2 -23
v-308q0 -21 6 -34t23 -13q14 0 20 -11t6 -25q0 -20 -12 -32t-38 -12q-43 0 -59.5 20.5t-19.5 52.5q-42 -83 -130 -83q-43 0 -72.5 19.5t-43.5 51.5v-188z" />
    <glyph glyph-name="paragraph" unicode="&#xb6;" horiz-adv-x="503" 
d="M312 34q0 -15 -9.5 -24.5t-23.5 -9.5q-15 0 -24 9.5t-9 24.5v312h-33q-37 0 -70.5 11.5t-59 33t-40.5 53.5t-15 73q0 36 13.5 68t38 55t58.5 36.5t75 13.5h174q14 0 23 -9t9 -24v-623q0 -15 -9 -24.5t-23 -9.5q-15 0 -24.5 9.5t-9.5 24.5v589h-41v-589z" />
    <glyph glyph-name="periodcentered" unicode="&#xb7;" horiz-adv-x="500" 
d="M176 314q-15 14 -15 41q0 26 15 41t40 15q24 0 40 -15t16 -41q0 -29 -16 -41.5t-40 -12.5t-40 13z" />
    <glyph glyph-name="cedilla" unicode="&#xb8;" horiz-adv-x="500" 
d="M193 0h56v-38q13 -2 26.5 -7.5t24.5 -15.5t17.5 -24t6.5 -34q0 -26 -9.5 -44.5t-24.5 -30.5t-34 -18t-37 -6q-26 0 -36 8t-10 23q0 16 10.5 21.5t21.5 5.5q26 0 38.5 10t12.5 27t-11.5 25t-32.5 10q-10 2 -14.5 5.5t-4.5 15.5v67z" />
    <glyph glyph-name="uni00B9" unicode="&#xb9;" horiz-adv-x="339" 
d="M231 376q0 -14 -10 -23.5t-25 -9.5t-25 8.5t-10 23.5v221l-47 -34q-5 -3 -11.5 -5.5t-14.5 -2.5q-14 0 -23.5 9.5t-9.5 23.5q0 8 4 14t9 10l99 73q10 8 17 9.5t11 1.5q17 0 26.5 -9t9.5 -23v-287z" />
    <glyph glyph-name="ordmasculine" unicode="&#xba;" horiz-adv-x="414" 
d="M135 341q-33 14 -56.5 39t-36.5 59t-13 73t13 73t36.5 59t56.5 39t72 14t72 -14t56.5 -39t36.5 -59t13 -73t-13 -73t-36.5 -59t-56.5 -39t-72 -14t-72 14zM134 431q12 -15 30.5 -24.5t42.5 -9.5q48 0 73 33t25 81t-25 81.5t-73 33.5t-73 -32.5t-25 -80.5q0 -24 6.5 -45
t18.5 -37z" />
    <glyph glyph-name="guillemotright" unicode="&#xbb;" horiz-adv-x="589" 
d="M97 59q-5 -4 -11.5 -7t-14.5 -3q-14 0 -23 10t-9 23q0 17 15 29l174 140l-175 136q-8 6 -11 13.5t-3 15.5q0 14 9.5 24t22.5 10q8 0 14.5 -3t11.5 -7l202 -162q5 -5 10 -11.5t5 -17.5q0 -16 -15 -28zM333 59q-5 -4 -11.5 -7t-14.5 -3q-14 0 -23 10t-9 23q0 17 15 29
l174 140l-175 136q-8 6 -11 13.5t-3 15.5q0 14 9.5 24t22.5 10q8 0 14.5 -3t11.5 -7l202 -162q5 -5 10 -11.5t5 -17.5q0 -16 -15 -28z" />
    <glyph glyph-name="onequarter" unicode="&#xbc;" horiz-adv-x="744" 
d="M231 376q0 -14 -10 -23.5t-25 -9.5t-25 8.5t-10 23.5v221l-47 -34q-5 -3 -11.5 -5.5t-14.5 -2.5q-14 0 -23.5 9.5t-9.5 23.5q0 8 4 14t9 10l99 73q10 8 17 9.5t11 1.5q17 0 26.5 -9t9.5 -23v-287zM173 14q-8 -11 -15 -15t-15 -4q-15 0 -24 10.5t-9 22.5q0 8 3 13.5
t8 13.5l491 617q9 11 15.5 14.5t14.5 3.5q14 0 23.5 -9.5t9.5 -24.5q0 -11 -12 -26zM457 71q-14 0 -22.5 8t-8.5 21q0 14 12 27l160 203q11 14 21.5 18t24.5 4q15 0 25 -9t10 -24v-195h25q14 0 23 -6t9 -20q0 -15 -9 -21t-22 -6h-26v-38q0 -15 -9.5 -24t-25.5 -9
q-15 0 -25 9t-10 24v38h-152zM495 124h114v146z" />
    <glyph glyph-name="onehalf" unicode="&#xbd;" horiz-adv-x="744" 
d="M231 376q0 -14 -10 -23.5t-25 -9.5t-25 8.5t-10 23.5v221l-47 -34q-5 -3 -11.5 -5.5t-14.5 -2.5q-14 0 -23.5 9.5t-9.5 23.5q0 8 4 14t9 10l99 73q10 8 17 9.5t11 1.5q17 0 26.5 -9t9.5 -23v-287zM137 14q-8 -11 -15 -15t-15 -4q-15 0 -24 10.5t-9 22.5q0 8 3 13.5
t8 13.5l491 617q9 11 15.5 14.5t14.5 3.5q14 0 23.5 -9.5t9.5 -24.5q0 -11 -12 -26zM487 0q-11 0 -24 6.5t-13 24.5q0 8 4 16t9 13l115 104q34 31 47 51t13 39q0 17 -14 28t-41 11q-25 0 -40 -8t-23 -21q-14 -17 -33 -17q-14 1 -23.5 8.5t-9.5 24.5q0 12 9 26t25.5 25
t40.5 18.5t54 7.5q57 0 92.5 -26.5t35.5 -75.5q0 -31 -18 -58.5t-56 -59.5l-82 -74h131q17 0 26.5 -9t9.5 -23t-9.5 -22.5t-26.5 -8.5h-199z" />
    <glyph glyph-name="threequarters" unicode="&#xbe;" horiz-adv-x="744" 
d="M155 498q-14 0 -25 8t-11 22q0 15 11.5 21.5t27.5 6.5h14q25 0 39 12t14 29q0 20 -16 31t-41 11q-22 0 -37.5 -5.5t-29.5 -14.5q-11 -6 -20 -6q-12 0 -21.5 8t-9.5 21q0 15 18 29q9 8 34.5 18.5t67.5 10.5q60 0 95 -27t35 -64q0 -24 -15.5 -45t-45.5 -31q38 -8 56 -32
t18 -50t-11 -47t-30.5 -36t-46.5 -23t-58 -8q-36 0 -63 7.5t-49 23.5q-17 12 -17 28q0 14 10.5 22.5t24.5 8.5q9 0 19 -5q17 -11 33.5 -16.5t39.5 -5.5q35 0 55.5 13.5t20.5 36.5q0 22 -16.5 35t-50.5 13h-19zM193 14q-8 -11 -15 -15t-15 -4q-15 0 -24 10.5t-9 22.5
q0 8 3 13.5t8 13.5l491 617q9 11 15.5 14.5t14.5 3.5q14 0 23.5 -9.5t9.5 -24.5q0 -11 -12 -26zM457 71q-14 0 -22.5 8t-8.5 21q0 14 12 27l160 203q11 14 21.5 18t24.5 4q15 0 25 -9t10 -24v-195h25q14 0 23 -6t9 -20q0 -15 -9 -21t-22 -6h-26v-38q0 -15 -9.5 -24t-25.5 -9
q-15 0 -25 9t-10 24v38h-152zM495 124h114v146z" />
    <glyph glyph-name="questiondown" unicode="&#xbf;" horiz-adv-x="532" 
d="M334 150q0 -20 -12 -31t-29 -16q-124 -27 -124 -115q0 -38 26 -64.5t77 -26.5q59 0 98 48q14 16 25 28.5t28 12.5q20 0 30.5 -11.5t10.5 -28.5q0 -19 -7.5 -33t-15.5 -24q-26 -32 -67.5 -55t-103.5 -23q-88 0 -140 46.5t-52 128.5q0 39 12.5 69t35 52.5t53.5 39t69 27.5
v96q0 18 11.5 29.5t32.5 11.5q20 0 31 -11.5t11 -29.5v-120zM249 408q-17 16 -17 44t17 43.5t43 15.5t42.5 -15.5t16.5 -43.5t-16.5 -44t-42.5 -16t-43 16z" />
    <glyph glyph-name="Agrave" unicode="&#xc0;" horiz-adv-x="683" 
d="M123 29q-7 -17 -16.5 -23t-24.5 -6q-18 0 -31 10.5t-13 28.5q0 8 3 17.5t12 29.5l235 561q9 20 21 31.5t32 11.5t33 -11.5t22 -31.5l234 -561q9 -19 12 -28t3 -15q0 -20 -14 -31.5t-34 -11.5q-18 0 -28.5 10.5t-21.5 38.5l-51 126h-314zM212 251h254l-126 315zM262 850
q-17 11 -17 33q0 17 13 29t29 12q12 0 22.5 -7.5t18.5 -15.5l102 -98q12 -12 12 -24q0 -11 -8 -19.5t-20 -8.5q-8 0 -19 7z" />
    <glyph glyph-name="Aacute" unicode="&#xc1;" horiz-adv-x="683" 
d="M123 29q-7 -17 -16.5 -23t-24.5 -6q-18 0 -31 10.5t-13 28.5q0 8 3 17.5t12 29.5l235 561q9 20 21 31.5t32 11.5t33 -11.5t22 -31.5l234 -561q9 -19 12 -28t3 -15q0 -20 -14 -31.5t-34 -11.5q-18 0 -28.5 10.5t-21.5 38.5l-51 126h-314zM212 251h254l-126 315zM291 758
q-10 -7 -18 -7q-12 0 -20 8.5t-8 19.5q0 12 12 24l102 98q8 8 18.5 15.5t22.5 7.5q16 0 29 -12t13 -29q0 -21 -18 -33z" />
    <glyph glyph-name="Acircumflex" unicode="&#xc2;" horiz-adv-x="683" 
d="M123 29q-7 -17 -16.5 -23t-24.5 -6q-18 0 -31 10.5t-13 28.5q0 8 3 17.5t12 29.5l235 561q9 20 21 31.5t32 11.5t33 -11.5t22 -31.5l234 -561q9 -19 12 -28t3 -15q0 -20 -14 -31.5t-34 -11.5q-18 0 -28.5 10.5t-21.5 38.5l-51 126h-314zM212 251h254l-126 315zM239 760
q-8 -5 -12.5 -7t-9.5 -2q-10 0 -17 7.5t-7 16.5q0 12 14 26l108 109q7 7 13.5 10.5t16.5 3.5q17 0 29 -14l108 -109q6 -7 10 -13t4 -13q0 -9 -7 -16.5t-18 -7.5q-4 0 -8.5 1.5t-12.5 7.5l-106 81z" />
    <glyph glyph-name="Atilde" unicode="&#xc3;" horiz-adv-x="683" 
d="M123 29q-7 -17 -16.5 -23t-24.5 -6q-18 0 -31 10.5t-13 28.5q0 8 3 17.5t12 29.5l235 561q9 20 21 31.5t32 11.5t33 -11.5t22 -31.5l234 -561q9 -19 12 -28t3 -15q0 -20 -14 -31.5t-34 -11.5q-18 0 -28.5 10.5t-21.5 38.5l-51 126h-314zM212 251h254l-126 315zM509 859
q0 -21 -13 -35q-14 -19 -32.5 -30t-41.5 -11q-24 0 -42 6.5t-33 14.5t-30 14.5t-34 6.5q-20 0 -32.5 -8t-22.5 -19q-5 -6 -11 -9.5t-17 -3.5q-14 0 -22 9t-8 22q0 7 3 15.5t10 16.5q16 20 37 32.5t55 12.5q23 0 40 -6.5t31.5 -14t29 -13.5t32.5 -6q15 0 25 6.5t20 20.5
q5 6 11 10.5t14 4.5q12 0 21.5 -10t9.5 -26z" />
    <glyph glyph-name="Adieresis" unicode="&#xc4;" horiz-adv-x="683" 
d="M123 29q-7 -17 -16.5 -23t-24.5 -6q-18 0 -31 10.5t-13 28.5q0 8 3 17.5t12 29.5l235 561q9 20 21 31.5t32 11.5t33 -11.5t22 -31.5l234 -561q9 -19 12 -28t3 -15q0 -20 -14 -31.5t-34 -11.5q-18 0 -28.5 10.5t-21.5 38.5l-51 126h-314zM212 251h254l-126 315zM227 799
q-12 12 -12 35t12.5 35.5t34.5 12.5q20 0 34 -12.5t14 -35.5q0 -24 -13 -35t-35 -11t-35 11zM385 800q-13 12 -13 35t12.5 35t34.5 12q20 0 34 -12t14 -35q0 -25 -13.5 -36t-34.5 -11t-34 12z" />
    <glyph glyph-name="Aring" unicode="&#xc5;" horiz-adv-x="683" 
d="M123 29q-7 -17 -16.5 -23t-24.5 -6q-18 0 -31 10.5t-13 28.5q0 8 3 17.5t12 29.5l235 561q9 20 21 31.5t32 11.5t33 -11.5t22 -31.5l234 -561q9 -19 12 -28t3 -15q0 -20 -14 -31.5t-34 -11.5q-18 0 -28.5 10.5t-21.5 38.5l-51 126h-314zM212 251h254l-126 315zM269 778
q-14 14 -22.5 33.5t-8.5 43.5t8.5 43.5t23 33t33 21t38.5 7.5q22 0 41 -8t32.5 -22t21.5 -33.5t8 -41.5q0 -45 -29 -74.5t-74 -29.5q-20 0 -39 7t-33 20zM306 821q12 -14 35 -14q24 0 35 15.5t11 32.5q0 18 -11 33.5t-35 15.5q-27 0 -36.5 -16t-9.5 -32q0 -20 11 -35z" />
    <glyph glyph-name="AE" unicode="&#xc6;" horiz-adv-x="915" 
d="M110 25q-8 -12 -17 -18.5t-23 -6.5q-17 0 -30.5 10.5t-13.5 32.5q0 14 8 27l361 587q10 17 23.5 25t34.5 8h384q20 0 31 -11t11 -29t-11 -29t-31 -11h-330v-217h222q20 0 32 -11t12 -29t-12 -29t-32 -11h-222v-233h331q19 0 30 -11t11 -30q0 -18 -10.5 -28.5t-30.5 -10.5
h-375q-22 0 -34 12.5t-12 32.5v139h-210zM246 264h171v289z" />
    <glyph glyph-name="Ccedilla" unicode="&#xc7;" horiz-adv-x="690" 
d="M325 -6q-61 8 -111 36.5t-86 74t-55.5 106.5t-19.5 134q0 79 23.5 144.5t66 112.5t101.5 72.5t129 25.5q52 0 93.5 -13t72.5 -31.5t52 -39t32 -35.5q18 -27 18 -49q0 -21 -14 -31.5t-28 -10.5q-21 0 -33 15q-17 21 -36 40.5t-42 34.5t-51.5 23.5t-63.5 8.5
q-53 0 -95 -20.5t-71 -56.5t-45 -85t-16 -106q0 -56 16 -104.5t46 -84.5t73.5 -56.5t97.5 -20.5q63 0 108 26.5t80 74.5q13 17 32 17q17 0 28 -13.5t11 -27.5q0 -8 -2.5 -18t-10.5 -20q-12 -16 -32.5 -37.5t-50.5 -41t-70 -33.5t-91 -15v-28q28 -5 51.5 -23t23.5 -58
q0 -26 -9.5 -44.5t-24.5 -30.5t-34 -18t-37 -6q-26 0 -35.5 8t-9.5 23q0 16 10 21.5t22 5.5q26 0 38 10t12 27t-11 25t-33 10q-10 2 -14.5 5.5t-4.5 15.5v61z" />
    <glyph glyph-name="Egrave" unicode="&#xc8;" horiz-adv-x="584" 
d="M129 0q-22 0 -33.5 12.5t-11.5 32.5v600q0 20 12 32.5t34 12.5h374q19 0 30.5 -11t11.5 -29t-11.5 -29t-30.5 -11h-330v-217h222q19 0 31.5 -11t12.5 -29t-12.5 -29t-31.5 -11h-222v-233h330q20 0 31 -11t11 -29t-11 -29t-31 -11h-375zM238 850q-17 11 -17 33q0 17 13 29
t29 12q12 0 22.5 -7.5t18.5 -15.5l102 -98q12 -12 12 -24q0 -11 -8 -19.5t-20 -8.5q-8 0 -19 7z" />
    <glyph glyph-name="Eacute" unicode="&#xc9;" horiz-adv-x="584" 
d="M129 0q-22 0 -33.5 12.5t-11.5 32.5v600q0 20 12 32.5t34 12.5h374q19 0 30.5 -11t11.5 -29t-11.5 -29t-30.5 -11h-330v-217h222q19 0 31.5 -11t12.5 -29t-12.5 -29t-31.5 -11h-222v-233h330q20 0 31 -11t11 -29t-11 -29t-31 -11h-375zM267 758q-10 -7 -18 -7
q-12 0 -20 8.5t-8 19.5q0 12 12 24l102 98q8 8 18.5 15.5t22.5 7.5q16 0 29 -12t13 -29q0 -21 -18 -33z" />
    <glyph glyph-name="Ecircumflex" unicode="&#xca;" horiz-adv-x="584" 
d="M129 0q-22 0 -33.5 12.5t-11.5 32.5v600q0 20 12 32.5t34 12.5h374q19 0 30.5 -11t11.5 -29t-11.5 -29t-30.5 -11h-330v-217h222q19 0 31.5 -11t12.5 -29t-12.5 -29t-31.5 -11h-222v-233h330q20 0 31 -11t11 -29t-11 -29t-31 -11h-375zM215 760q-8 -5 -12.5 -7t-9.5 -2
q-10 0 -17 7.5t-7 16.5q0 12 14 26l108 109q7 7 13.5 10.5t16.5 3.5q17 0 29 -14l108 -109q6 -7 10 -13t4 -13q0 -9 -7 -16.5t-18 -7.5q-4 0 -8.5 1.5t-12.5 7.5l-106 81z" />
    <glyph glyph-name="Edieresis" unicode="&#xcb;" horiz-adv-x="584" 
d="M129 0q-22 0 -33.5 12.5t-11.5 32.5v600q0 20 12 32.5t34 12.5h374q19 0 30.5 -11t11.5 -29t-11.5 -29t-30.5 -11h-330v-217h222q19 0 31.5 -11t12.5 -29t-12.5 -29t-31.5 -11h-222v-233h330q20 0 31 -11t11 -29t-11 -29t-31 -11h-375zM203 799q-12 12 -12 35t12.5 35.5
t34.5 12.5q20 0 34 -12.5t14 -35.5q0 -24 -13 -35t-35 -11t-35 11zM361 800q-13 12 -13 35t12.5 35t34.5 12q20 0 34 -12t14 -35q0 -25 -13.5 -36t-34.5 -11t-34 12z" />
    <glyph glyph-name="Igrave" unicode="&#xcc;" horiz-adv-x="257" 
d="M174 44q0 -20 -12.5 -32t-32.5 -12t-32.5 12t-12.5 32v602q0 20 12.5 32t32.5 12t32.5 -12t12.5 -32v-602zM50 850q-17 11 -17 33q0 17 13 29t29 12q12 0 22.5 -7.5t18.5 -15.5l102 -98q12 -12 12 -24q0 -11 -8 -19.5t-20 -8.5q-8 0 -19 7z" />
    <glyph glyph-name="Iacute" unicode="&#xcd;" horiz-adv-x="257" 
d="M174 44q0 -20 -12.5 -32t-32.5 -12t-32.5 12t-12.5 32v602q0 20 12.5 32t32.5 12t32.5 -12t12.5 -32v-602zM79 758q-10 -7 -18 -7q-12 0 -20 8.5t-8 19.5q0 12 12 24l102 98q8 8 18.5 15.5t22.5 7.5q16 0 29 -12t13 -29q0 -21 -18 -33z" />
    <glyph glyph-name="Icircumflex" unicode="&#xce;" horiz-adv-x="257" 
d="M174 44q0 -20 -12.5 -32t-32.5 -12t-32.5 12t-12.5 32v602q0 20 12.5 32t32.5 12t32.5 -12t12.5 -32v-602zM27 760q-8 -5 -12.5 -7t-9.5 -2q-10 0 -17 7.5t-7 16.5q0 12 14 26l108 109q7 7 13.5 10.5t16.5 3.5q17 0 29 -14l108 -109q6 -7 10 -13t4 -13q0 -9 -7 -16.5
t-18 -7.5q-4 0 -8.5 1.5t-12.5 7.5l-106 81z" />
    <glyph glyph-name="Idieresis" unicode="&#xcf;" horiz-adv-x="257" 
d="M174 44q0 -20 -12.5 -32t-32.5 -12t-32.5 12t-12.5 32v602q0 20 12.5 32t32.5 12t32.5 -12t12.5 -32v-602zM15 799q-12 12 -12 35t12.5 35.5t34.5 12.5q20 0 34 -12.5t14 -35.5q0 -24 -13 -35t-35 -11t-35 11zM173 800q-13 12 -13 35t12.5 35t34.5 12q20 0 34 -12t14 -35
q0 -25 -13.5 -36t-34.5 -11t-34 12z" />
    <glyph glyph-name="Eth" unicode="&#xd0;" horiz-adv-x="686" 
d="M128 0q-24 0 -34 12t-10 32v272h-39q-19 0 -32 11t-13 31t13 31.5t32 11.5h39v245q0 20 11 32t34 12h199q70 0 126 -25t96 -70t61.5 -108t21.5 -138q0 -74 -22 -137.5t-62 -110.5t-96 -74t-125 -27h-200zM174 80h148q51 0 91.5 20t68.5 56t43 85.5t15 107.5t-15 106
t-43.5 82.5t-70 53.5t-94.5 19h-143v-209h115q20 0 33 -11.5t13 -31.5t-13 -31t-33 -11h-115v-236z" />
    <glyph glyph-name="Ntilde" unicode="&#xd1;" horiz-adv-x="689" 
d="M174 44q0 -20 -12.5 -32t-32.5 -12t-32.5 12t-12.5 32v593q0 23 10 38t33 15q24 0 39 -22l350 -493v471q0 20 12.5 31.5t32.5 11.5q19 0 32 -11.5t13 -31.5v-602q0 -20 -11 -32t-31 -12q-14 0 -23.5 5t-18.5 17l-348 483v-461zM513 859q0 -21 -13 -35q-14 -19 -32.5 -30
t-41.5 -11q-24 0 -42 6.5t-33 14.5t-30 14.5t-34 6.5q-20 0 -32.5 -8t-22.5 -19q-5 -6 -11 -9.5t-17 -3.5q-14 0 -22 9t-8 22q0 7 3 15.5t10 16.5q16 20 37 32.5t55 12.5q23 0 40 -6.5t31.5 -14t29 -13.5t32.5 -6q15 0 25 6.5t20 20.5q5 6 11 10.5t14 4.5q12 0 21.5 -10
t9.5 -26z" />
    <glyph glyph-name="Ograve" unicode="&#xd2;" horiz-adv-x="750" 
d="M244 16q-59 26 -101.5 73.5t-66 113t-23.5 143.5q0 79 23.5 144t66 111.5t101.5 72.5t131 26q71 0 130.5 -26t102 -72.5t66 -111.5t23.5 -144q0 -78 -23.5 -143.5t-66 -113t-102 -73.5t-130.5 -26q-72 0 -131 26zM208 155q30 -36 72 -56.5t95 -20.5t95.5 20.5t72 56.5
t45.5 85t16 106t-16 105.5t-46 84t-72.5 56t-94.5 20.5q-53 0 -95.5 -20.5t-72 -56t-45.5 -84t-16 -105.5t16 -106t46 -85zM296 850q-17 11 -17 33q0 17 13 29t29 12q12 0 22.5 -7.5t18.5 -15.5l102 -98q12 -12 12 -24q0 -11 -8 -19.5t-20 -8.5q-8 0 -19 7z" />
    <glyph glyph-name="Oacute" unicode="&#xd3;" horiz-adv-x="750" 
d="M244 16q-59 26 -101.5 73.5t-66 113t-23.5 143.5q0 79 23.5 144t66 111.5t101.5 72.5t131 26q71 0 130.5 -26t102 -72.5t66 -111.5t23.5 -144q0 -78 -23.5 -143.5t-66 -113t-102 -73.5t-130.5 -26q-72 0 -131 26zM208 155q30 -36 72 -56.5t95 -20.5t95.5 20.5t72 56.5
t45.5 85t16 106t-16 105.5t-46 84t-72.5 56t-94.5 20.5q-53 0 -95.5 -20.5t-72 -56t-45.5 -84t-16 -105.5t16 -106t46 -85zM325 758q-10 -7 -18 -7q-12 0 -20 8.5t-8 19.5q0 12 12 24l102 98q8 8 18.5 15.5t22.5 7.5q16 0 29 -12t13 -29q0 -21 -18 -33z" />
    <glyph glyph-name="Ocircumflex" unicode="&#xd4;" horiz-adv-x="750" 
d="M244 16q-59 26 -101.5 73.5t-66 113t-23.5 143.5q0 79 23.5 144t66 111.5t101.5 72.5t131 26q71 0 130.5 -26t102 -72.5t66 -111.5t23.5 -144q0 -78 -23.5 -143.5t-66 -113t-102 -73.5t-130.5 -26q-72 0 -131 26zM208 155q30 -36 72 -56.5t95 -20.5t95.5 20.5t72 56.5
t45.5 85t16 106t-16 105.5t-46 84t-72.5 56t-94.5 20.5q-53 0 -95.5 -20.5t-72 -56t-45.5 -84t-16 -105.5t16 -106t46 -85zM273 760q-8 -5 -12.5 -7t-9.5 -2q-10 0 -17 7.5t-7 16.5q0 12 14 26l108 109q7 7 13.5 10.5t16.5 3.5q17 0 29 -14l108 -109q6 -7 10 -13t4 -13
q0 -9 -7 -16.5t-18 -7.5q-4 0 -8.5 1.5t-12.5 7.5l-106 81z" />
    <glyph glyph-name="Otilde" unicode="&#xd5;" horiz-adv-x="750" 
d="M244 16q-59 26 -101.5 73.5t-66 113t-23.5 143.5q0 79 23.5 144t66 111.5t101.5 72.5t131 26q71 0 130.5 -26t102 -72.5t66 -111.5t23.5 -144q0 -78 -23.5 -143.5t-66 -113t-102 -73.5t-130.5 -26q-72 0 -131 26zM208 155q30 -36 72 -56.5t95 -20.5t95.5 20.5t72 56.5
t45.5 85t16 106t-16 105.5t-46 84t-72.5 56t-94.5 20.5q-53 0 -95.5 -20.5t-72 -56t-45.5 -84t-16 -105.5t16 -106t46 -85zM543 859q0 -21 -13 -35q-14 -19 -32.5 -30t-41.5 -11q-24 0 -42 6.5t-33 14.5t-30 14.5t-34 6.5q-20 0 -32.5 -8t-22.5 -19q-5 -6 -11 -9.5t-17 -3.5
q-14 0 -22 9t-8 22q0 7 3 15.5t10 16.5q16 20 37 32.5t55 12.5q23 0 40 -6.5t31.5 -14t29 -13.5t32.5 -6q15 0 25 6.5t20 20.5q5 6 11 10.5t14 4.5q12 0 21.5 -10t9.5 -26z" />
    <glyph glyph-name="Odieresis" unicode="&#xd6;" horiz-adv-x="750" 
d="M244 16q-59 26 -101.5 73.5t-66 113t-23.5 143.5q0 79 23.5 144t66 111.5t101.5 72.5t131 26q71 0 130.5 -26t102 -72.5t66 -111.5t23.5 -144q0 -78 -23.5 -143.5t-66 -113t-102 -73.5t-130.5 -26q-72 0 -131 26zM208 155q30 -36 72 -56.5t95 -20.5t95.5 20.5t72 56.5
t45.5 85t16 106t-16 105.5t-46 84t-72.5 56t-94.5 20.5q-53 0 -95.5 -20.5t-72 -56t-45.5 -84t-16 -105.5t16 -106t46 -85zM261 799q-12 12 -12 35t12.5 35.5t34.5 12.5q20 0 34 -12.5t14 -35.5q0 -24 -13 -35t-35 -11t-35 11zM419 800q-13 12 -13 35t12.5 35t34.5 12
q20 0 34 -12t14 -35q0 -25 -13.5 -36t-34.5 -11t-34 12z" />
    <glyph glyph-name="multiply" unicode="&#xd7;" 
d="M213 168q-11 -12 -25 -12q-13 0 -24 9.5t-11 24.5t11 26l102 102l-101 101q-12 12 -12 24q0 14 9.5 24.5t25.5 10.5q14 0 25 -11l101 -102l101 102q11 11 25 11q13 0 24 -10t11 -25q0 -14 -11 -25l-102 -101l102 -102q11 -10 11 -25q0 -13 -10 -23.5t-24 -10.5
q-15 0 -26 11l-101 102z" />
    <glyph glyph-name="Oslash" unicode="&#xd8;" horiz-adv-x="750" 
d="M177 9q-8 -11 -15.5 -15t-15.5 -4q-15 0 -25 9.5t-10 23.5q0 8 2.5 13.5t5.5 10.5l27 38q-45 48 -69 114t-24 147q0 79 23.5 144t66 111.5t101.5 72.5t131 26q94 0 168 -46l21 30q7 10 14 13t15 3q17 0 26.5 -10t9.5 -24q0 -12 -7 -21l-24 -34q47 -48 73 -115t26 -150
q0 -78 -23.5 -143.5t-66 -113t-102 -73.5t-130.5 -26q-51 0 -95 13t-81 37zM251 115q54 -37 124 -37q53 0 95.5 20.5t72 56.5t45.5 85t16 106q0 56 -15.5 104t-44.5 83zM491 580q-25 15 -54 23.5t-62 8.5q-53 0 -95.5 -20.5t-72 -56t-45.5 -84t-16 -105.5q0 -54 14 -100.5
t41 -81.5z" />
    <glyph glyph-name="Ugrave" unicode="&#xd9;" horiz-adv-x="700" 
d="M169 264q0 -89 47.5 -137.5t133.5 -48.5t134 49.5t48 140.5v378q0 20 12.5 32t32.5 12t32.5 -12t12.5 -32v-390q0 -59 -19.5 -108t-55 -84t-85.5 -54.5t-112 -19.5t-112 19t-85.5 54t-54.5 83t-19 107v393q0 20 12.5 32t32.5 12t32.5 -12t12.5 -32v-382zM271 850
q-17 11 -17 33q0 17 13 29t29 12q12 0 22.5 -7.5t18.5 -15.5l102 -98q12 -12 12 -24q0 -11 -8 -19.5t-20 -8.5q-8 0 -19 7z" />
    <glyph glyph-name="Uacute" unicode="&#xda;" horiz-adv-x="700" 
d="M169 264q0 -89 47.5 -137.5t133.5 -48.5t134 49.5t48 140.5v378q0 20 12.5 32t32.5 12t32.5 -12t12.5 -32v-390q0 -59 -19.5 -108t-55 -84t-85.5 -54.5t-112 -19.5t-112 19t-85.5 54t-54.5 83t-19 107v393q0 20 12.5 32t32.5 12t32.5 -12t12.5 -32v-382zM300 758
q-10 -7 -18 -7q-12 0 -20 8.5t-8 19.5q0 12 12 24l102 98q8 8 18.5 15.5t22.5 7.5q16 0 29 -12t13 -29q0 -21 -18 -33z" />
    <glyph glyph-name="Ucircumflex" unicode="&#xdb;" horiz-adv-x="700" 
d="M169 264q0 -89 47.5 -137.5t133.5 -48.5t134 49.5t48 140.5v378q0 20 12.5 32t32.5 12t32.5 -12t12.5 -32v-390q0 -59 -19.5 -108t-55 -84t-85.5 -54.5t-112 -19.5t-112 19t-85.5 54t-54.5 83t-19 107v393q0 20 12.5 32t32.5 12t32.5 -12t12.5 -32v-382zM248 760
q-8 -5 -12.5 -7t-9.5 -2q-10 0 -17 7.5t-7 16.5q0 12 14 26l108 109q7 7 13.5 10.5t16.5 3.5q17 0 29 -14l108 -109q6 -7 10 -13t4 -13q0 -9 -7 -16.5t-18 -7.5q-4 0 -8.5 1.5t-12.5 7.5l-106 81z" />
    <glyph glyph-name="Udieresis" unicode="&#xdc;" horiz-adv-x="700" 
d="M169 264q0 -89 47.5 -137.5t133.5 -48.5t134 49.5t48 140.5v378q0 20 12.5 32t32.5 12t32.5 -12t12.5 -32v-390q0 -59 -19.5 -108t-55 -84t-85.5 -54.5t-112 -19.5t-112 19t-85.5 54t-54.5 83t-19 107v393q0 20 12.5 32t32.5 12t32.5 -12t12.5 -32v-382zM236 799
q-12 12 -12 35t12.5 35.5t34.5 12.5q20 0 34 -12.5t14 -35.5q0 -24 -13 -35t-35 -11t-35 11zM394 800q-13 12 -13 35t12.5 35t34.5 12q20 0 34 -12t14 -35q0 -25 -13.5 -36t-34.5 -11t-34 12z" />
    <glyph glyph-name="Yacute" unicode="&#xdd;" horiz-adv-x="629" 
d="M359 44q0 -20 -12.5 -32t-32.5 -12t-32.5 12t-12.5 32v216l-224 361q-7 14 -7 27q0 17 11 29.5t33 12.5q11 0 20.5 -4.5t17.5 -16.5l195 -323l192 318q8 13 16 19.5t25 6.5q15 0 29 -11t14 -28q0 -9 -4 -19t-9 -18l-219 -354v-216zM264 758q-10 -7 -18 -7q-12 0 -20 8.5
t-8 19.5q0 12 12 24l102 98q8 8 18.5 15.5t22.5 7.5q16 0 29 -12t13 -29q0 -21 -18 -33z" />
    <glyph glyph-name="Thorn" unicode="&#xde;" horiz-adv-x="608" 
d="M174 44q0 -20 -12.5 -32t-32.5 -12t-32.5 12t-12.5 32v602q0 20 12.5 32t32.5 12t32.5 -12t12.5 -32v-80h148q117 0 180 -58.5t63 -161.5q0 -51 -17 -91t-49 -68t-78 -43t-103 -15h-144v-85zM174 208h144q81 0 118 38.5t37 99.5q0 67 -40 103.5t-117 36.5h-142v-278z" />
    <glyph glyph-name="germandbls" unicode="&#xdf;" horiz-adv-x="596" 
d="M163 44q0 -21 -12.5 -32.5t-32.5 -11.5t-32 11.5t-12 32.5v445q-1 54 15 93.5t44.5 66t67 39t82.5 12.5q48 0 86 -16t64.5 -45t40 -69t13.5 -89q0 -26 -10.5 -41t-43.5 -16q-40 0 -63 -13t-23 -39q0 -21 16.5 -37t39.5 -29.5t48 -26.5q3 -1 19 -9t40.5 -27t41 -44
t16.5 -61q0 -31 -12.5 -58t-35.5 -47t-55 -31.5t-70 -11.5q-30 0 -56.5 7.5t-47.5 20t-36.5 29t-22.5 33.5q-1 2 -2.5 6.5t-1.5 11.5q0 14 11 26.5t29 12.5q10 0 17.5 -4.5t12.5 -11.5q6 -9 15 -18.5t21 -17.5t27 -13t35 -5q38 0 60 18.5t22 51.5q0 23 -16.5 40t-40 30.5
t-49.5 25.5q-3 1 -18 8.5t-39.5 25.5t-41 42.5t-16.5 59.5q0 27 11 47.5t30 35t44.5 22.5t55.5 9q1 65 -29.5 102.5t-87.5 37.5q-61 0 -89.5 -36.5t-28.5 -96.5v-446z" />
    <glyph glyph-name="agrave" unicode="&#xe0;" horiz-adv-x="618" 
d="M452 111q-26 -56 -72.5 -88.5t-110.5 -32.5q-47 0 -88.5 19t-72 53t-48 81.5t-17.5 105.5t18.5 106.5t50 83t73.5 53.5t90 19q66 0 109 -31t68 -84v68q0 17 11.5 27t31.5 10t32 -10t12 -27v-336q0 -20 6 -34.5t23 -14.5q12 0 19.5 -9t7.5 -26q0 -44 -54 -44q-23 0 -39 7
t-26.5 19t-16 28t-7.5 34v23zM178 119q21 -23 50.5 -36t64.5 -13q33 0 62 13t50.5 36t34 56t12.5 73t-12 74t-33 58.5t-50 38t-64 13.5q-37 0 -66.5 -14t-50.5 -38.5t-32 -58t-11 -73.5q0 -39 12 -72t33 -57zM229 650q-17 11 -17 33q0 17 13 29t29 12q12 0 22.5 -7.5
t18.5 -15.5l102 -98q12 -12 12 -24q0 -11 -8 -19.5t-20 -8.5q-8 0 -19 7z" />
    <glyph glyph-name="aacute" unicode="&#xe1;" horiz-adv-x="618" 
d="M452 111q-26 -56 -72.5 -88.5t-110.5 -32.5q-47 0 -88.5 19t-72 53t-48 81.5t-17.5 105.5t18.5 106.5t50 83t73.5 53.5t90 19q66 0 109 -31t68 -84v68q0 17 11.5 27t31.5 10t32 -10t12 -27v-336q0 -20 6 -34.5t23 -14.5q12 0 19.5 -9t7.5 -26q0 -44 -54 -44q-23 0 -39 7
t-26.5 19t-16 28t-7.5 34v23zM178 119q21 -23 50.5 -36t64.5 -13q33 0 62 13t50.5 36t34 56t12.5 73t-12 74t-33 58.5t-50 38t-64 13.5q-37 0 -66.5 -14t-50.5 -38.5t-32 -58t-11 -73.5q0 -39 12 -72t33 -57zM238 558q-10 -7 -18 -7q-12 0 -20 8.5t-8 19.5q0 12 12 24
l102 98q8 8 18.5 15.5t22.5 7.5q16 0 29 -12t13 -29q0 -21 -18 -33z" />
    <glyph glyph-name="acircumflex" unicode="&#xe2;" horiz-adv-x="618" 
d="M452 111q-26 -56 -72.5 -88.5t-110.5 -32.5q-47 0 -88.5 19t-72 53t-48 81.5t-17.5 105.5t18.5 106.5t50 83t73.5 53.5t90 19q66 0 109 -31t68 -84v68q0 17 11.5 27t31.5 10t32 -10t12 -27v-336q0 -20 6 -34.5t23 -14.5q12 0 19.5 -9t7.5 -26q0 -44 -54 -44q-23 0 -39 7
t-26.5 19t-16 28t-7.5 34v23zM178 119q21 -23 50.5 -36t64.5 -13q33 0 62 13t50.5 36t34 56t12.5 73t-12 74t-33 58.5t-50 38t-64 13.5q-37 0 -66.5 -14t-50.5 -38.5t-32 -58t-11 -73.5q0 -39 12 -72t33 -57zM186 560q-8 -5 -12.5 -7t-9.5 -2q-10 0 -17 7.5t-7 16.5
q0 12 14 26l108 109q7 7 13.5 10.5t16.5 3.5q17 0 29 -14l108 -109q6 -7 10 -13t4 -13q0 -9 -7 -16.5t-18 -7.5q-4 0 -8.5 1.5t-12.5 7.5l-106 81z" />
    <glyph glyph-name="atilde" unicode="&#xe3;" horiz-adv-x="618" 
d="M452 111q-26 -56 -72.5 -88.5t-110.5 -32.5q-47 0 -88.5 19t-72 53t-48 81.5t-17.5 105.5t18.5 106.5t50 83t73.5 53.5t90 19q66 0 109 -31t68 -84v68q0 17 11.5 27t31.5 10t32 -10t12 -27v-336q0 -20 6 -34.5t23 -14.5q12 0 19.5 -9t7.5 -26q0 -44 -54 -44q-23 0 -39 7
t-26.5 19t-16 28t-7.5 34v23zM178 119q21 -23 50.5 -36t64.5 -13q33 0 62 13t50.5 36t34 56t12.5 73t-12 74t-33 58.5t-50 38t-64 13.5q-37 0 -66.5 -14t-50.5 -38.5t-32 -58t-11 -73.5q0 -39 12 -72t33 -57zM476 659q0 -21 -13 -35q-14 -19 -32.5 -30t-41.5 -11
q-24 0 -42 6.5t-33 14.5t-30 14.5t-34 6.5q-20 0 -32.5 -8t-22.5 -19q-5 -6 -11 -9.5t-17 -3.5q-14 0 -22 9t-8 22q0 7 3 15.5t10 16.5q16 20 37 32.5t55 12.5q23 0 40 -6.5t31.5 -14t29 -13.5t32.5 -6q15 0 25 6.5t20 20.5q5 6 11 10.5t14 4.5q12 0 21.5 -10t9.5 -26z" />
    <glyph glyph-name="adieresis" unicode="&#xe4;" horiz-adv-x="618" 
d="M452 111q-26 -56 -72.5 -88.5t-110.5 -32.5q-47 0 -88.5 19t-72 53t-48 81.5t-17.5 105.5t18.5 106.5t50 83t73.5 53.5t90 19q66 0 109 -31t68 -84v68q0 17 11.5 27t31.5 10t32 -10t12 -27v-336q0 -20 6 -34.5t23 -14.5q12 0 19.5 -9t7.5 -26q0 -44 -54 -44q-23 0 -39 7
t-26.5 19t-16 28t-7.5 34v23zM178 119q21 -23 50.5 -36t64.5 -13q33 0 62 13t50.5 36t34 56t12.5 73t-12 74t-33 58.5t-50 38t-64 13.5q-37 0 -66.5 -14t-50.5 -38.5t-32 -58t-11 -73.5q0 -39 12 -72t33 -57zM184 599q-12 12 -12 35t12.5 35.5t34.5 12.5q20 0 34 -12.5
t14 -35.5q0 -24 -13 -35t-35 -11t-35 11zM342 600q-13 12 -13 35t12.5 35t34.5 12q20 0 34 -12t14 -35q0 -25 -13.5 -36t-34.5 -11t-34 12z" />
    <glyph glyph-name="aring" unicode="&#xe5;" horiz-adv-x="618" 
d="M452 111q-26 -56 -72.5 -88.5t-110.5 -32.5q-47 0 -88.5 19t-72 53t-48 81.5t-17.5 105.5t18.5 106.5t50 83t73.5 53.5t90 19q66 0 109 -31t68 -84v68q0 17 11.5 27t31.5 10t32 -10t12 -27v-336q0 -20 6 -34.5t23 -14.5q12 0 19.5 -9t7.5 -26q0 -44 -54 -44q-23 0 -39 7
t-26.5 19t-16 28t-7.5 34v23zM178 119q21 -23 50.5 -36t64.5 -13q33 0 62 13t50.5 36t34 56t12.5 73t-12 74t-33 58.5t-50 38t-64 13.5q-37 0 -66.5 -14t-50.5 -38.5t-32 -58t-11 -73.5q0 -39 12 -72t33 -57zM222 578q-14 14 -22.5 33.5t-8.5 43.5t8.5 43.5t23 33t33 21
t38.5 7.5q22 0 41 -8t32.5 -22t21.5 -33.5t8 -41.5q0 -45 -29 -74.5t-74 -29.5q-20 0 -39 7t-33 20zM259 621q12 -14 35 -14q24 0 35 15.5t11 32.5q0 18 -11 33.5t-35 15.5q-27 0 -36.5 -16t-9.5 -32q0 -20 11 -35z" />
    <glyph glyph-name="ae" unicode="&#xe6;" horiz-adv-x="971" 
d="M540 236q6 -75 49 -120.5t115 -45.5q48 0 82.5 17t54.5 35q13 8 22 8q17 0 28 -12.5t11 -27.5q0 -11 -5.5 -20t-12.5 -14q-29 -27 -77 -46.5t-109 -19.5q-81 0 -135.5 40.5t-78.5 109.5q-30 -72 -84.5 -111t-126.5 -39q-49 0 -91 19t-73 53t-48.5 81.5t-17.5 105.5
t18.5 106.5t50 83t73.5 53.5t90 19q70 0 115 -30.5t71 -79.5v63q0 17 9.5 27t24.5 10q16 0 25.5 -10t9.5 -27v-69q28 61 72.5 88.5t96.5 27.5q49 0 90.5 -17.5t70.5 -47t45.5 -68t16.5 -80.5q0 -27 -9 -44.5t-38 -17.5h-335zM178 119q21 -23 50.5 -36t64.5 -13q33 0 62 13
t50.5 36t34 56t12.5 73t-12 74t-33 58.5t-50 38t-64 13.5q-37 0 -66.5 -14t-50.5 -38.5t-32 -58t-11 -73.5q0 -39 12 -72t33 -57zM836 292q2 25 -7 50t-27.5 45t-45.5 32.5t-60 12.5q-57 0 -100 -37t-54 -103h294z" />
    <glyph glyph-name="ccedilla" unicode="&#xe7;" horiz-adv-x="529" 
d="M238 -5q-44 8 -80 30.5t-61.5 56t-39.5 77t-14 92.5q0 55 18.5 102.5t51 82.5t77 55t96.5 20q66 0 112.5 -25.5t73.5 -60.5q8 -11 13.5 -21.5t5.5 -21.5q0 -20 -12.5 -29.5t-26.5 -9.5q-12 0 -19.5 5t-12.5 11q-6 8 -17 20.5t-27 24t-38 20t-50 8.5q-35 0 -64 -14.5
t-49 -39.5t-31 -58t-11 -70t11 -70t31 -57.5t48.5 -38.5t63.5 -14q39 0 71 18t58 48q15 15 31 15q13 0 25.5 -9.5t12.5 -28.5q0 -22 -14 -35q-26 -35 -70.5 -60.5t-107.5 -27.5v-28q28 -5 51.5 -23t23.5 -58q0 -26 -9.5 -44.5t-24.5 -30.5t-34 -18t-37 -6q-26 0 -35.5 8
t-9.5 23q0 16 10 21.5t22 5.5q26 0 38 10t12 27t-11 25t-33 10q-10 2 -14 5.5t-4 15.5v62z" />
    <glyph glyph-name="egrave" unicode="&#xe8;" horiz-adv-x="561" 
d="M130 236q6 -75 49 -120.5t115 -45.5q48 0 82.5 17t54.5 35q13 8 22 8q17 0 28 -12.5t11 -27.5q0 -11 -5.5 -20t-12.5 -14q-29 -27 -77 -46.5t-109 -19.5q-55 0 -100 19.5t-77.5 54t-50 81.5t-17.5 103t18.5 104t51.5 83.5t77.5 55.5t96.5 20q50 0 91.5 -17.5t71 -47
t46 -68t16.5 -80.5q0 -27 -9 -44.5t-38 -17.5h-335zM426 292q2 25 -7 50t-27.5 45t-45.5 32.5t-60 12.5q-57 0 -100 -37t-54 -103h294zM201 650q-17 11 -17 33q0 17 13 29t29 12q12 0 22.5 -7.5t18.5 -15.5l102 -98q12 -12 12 -24q0 -11 -8 -19.5t-20 -8.5q-8 0 -19 7z" />
    <glyph glyph-name="eacute" unicode="&#xe9;" horiz-adv-x="561" 
d="M130 236q6 -75 49 -120.5t115 -45.5q48 0 82.5 17t54.5 35q13 8 22 8q17 0 28 -12.5t11 -27.5q0 -11 -5.5 -20t-12.5 -14q-29 -27 -77 -46.5t-109 -19.5q-55 0 -100 19.5t-77.5 54t-50 81.5t-17.5 103t18.5 104t51.5 83.5t77.5 55.5t96.5 20q50 0 91.5 -17.5t71 -47
t46 -68t16.5 -80.5q0 -27 -9 -44.5t-38 -17.5h-335zM426 292q2 25 -7 50t-27.5 45t-45.5 32.5t-60 12.5q-57 0 -100 -37t-54 -103h294zM250 558q-10 -7 -18 -7q-12 0 -20 8.5t-8 19.5q0 12 12 24l102 98q8 8 18.5 15.5t22.5 7.5q16 0 29 -12t13 -29q0 -21 -18 -33z" />
    <glyph glyph-name="ecircumflex" unicode="&#xea;" horiz-adv-x="561" 
d="M130 236q6 -75 49 -120.5t115 -45.5q48 0 82.5 17t54.5 35q13 8 22 8q17 0 28 -12.5t11 -27.5q0 -11 -5.5 -20t-12.5 -14q-29 -27 -77 -46.5t-109 -19.5q-55 0 -100 19.5t-77.5 54t-50 81.5t-17.5 103t18.5 104t51.5 83.5t77.5 55.5t96.5 20q50 0 91.5 -17.5t71 -47
t46 -68t16.5 -80.5q0 -27 -9 -44.5t-38 -17.5h-335zM426 292q2 25 -7 50t-27.5 45t-45.5 32.5t-60 12.5q-57 0 -100 -37t-54 -103h294zM184 560q-8 -5 -12.5 -7t-9.5 -2q-10 0 -17 7.5t-7 16.5q0 12 14 26l108 109q7 7 13.5 10.5t16.5 3.5q17 0 29 -14l108 -109q6 -7 10 -13
t4 -13q0 -9 -7 -16.5t-18 -7.5q-4 0 -8.5 1.5t-12.5 7.5l-106 81z" />
    <glyph glyph-name="edieresis" unicode="&#xeb;" horiz-adv-x="561" 
d="M130 236q6 -75 49 -120.5t115 -45.5q48 0 82.5 17t54.5 35q13 8 22 8q17 0 28 -12.5t11 -27.5q0 -11 -5.5 -20t-12.5 -14q-29 -27 -77 -46.5t-109 -19.5q-55 0 -100 19.5t-77.5 54t-50 81.5t-17.5 103t18.5 104t51.5 83.5t77.5 55.5t96.5 20q50 0 91.5 -17.5t71 -47
t46 -68t16.5 -80.5q0 -27 -9 -44.5t-38 -17.5h-335zM426 292q2 25 -7 50t-27.5 45t-45.5 32.5t-60 12.5q-57 0 -100 -37t-54 -103h294zM176 599q-12 12 -12 35t12.5 35.5t34.5 12.5q20 0 34 -12.5t14 -35.5q0 -24 -13 -35t-35 -11t-35 11zM334 600q-13 12 -13 35t12.5 35
t34.5 12q20 0 34 -12t14 -35q0 -25 -13.5 -36t-34.5 -11t-34 12z" />
    <glyph glyph-name="igrave" unicode="&#xec;" horiz-adv-x="239" 
d="M161 127q0 -21 6 -34t23 -13q14 0 20 -11t6 -25q0 -20 -12 -32t-38 -12q-48 0 -70.5 30t-22.5 92v337q0 18 12 30t32 12t32 -12t12 -30v-332zM21 650q-17 11 -17 33q0 17 13 29t29 12q12 0 22.5 -7.5t18.5 -15.5l102 -98q12 -12 12 -24q0 -11 -8 -19.5t-20 -8.5
q-8 0 -19 7z" />
    <glyph glyph-name="iacute" unicode="&#xed;" horiz-adv-x="239" 
d="M161 127q0 -21 6 -34t23 -13q14 0 20 -11t6 -25q0 -20 -12 -32t-38 -12q-48 0 -70.5 30t-22.5 92v337q0 18 12 30t32 12t32 -12t12 -30v-332zM90 558q-10 -7 -18 -7q-12 0 -20 8.5t-8 19.5q0 12 12 24l102 98q8 8 18.5 15.5t22.5 7.5q16 0 29 -12t13 -29q0 -21 -18 -33z
" />
    <glyph glyph-name="icircumflex" unicode="&#xee;" horiz-adv-x="239" 
d="M161 127q0 -21 6 -34t23 -13q14 0 20 -11t6 -25q0 -20 -12 -32t-38 -12q-48 0 -70.5 30t-22.5 92v337q0 18 12 30t32 12t32 -12t12 -30v-332zM18 560q-8 -5 -12.5 -7t-9.5 -2q-10 0 -17 7.5t-7 16.5q0 12 14 26l108 109q7 7 13.5 10.5t16.5 3.5q17 0 29 -14l108 -109
q6 -7 10 -13t4 -13q0 -9 -7 -16.5t-18 -7.5q-4 0 -8.5 1.5t-12.5 7.5l-106 81z" />
    <glyph glyph-name="idieresis" unicode="&#xef;" horiz-adv-x="239" 
d="M161 127q0 -21 6 -34t23 -13q14 0 20 -11t6 -25q0 -20 -12 -32t-38 -12q-48 0 -70.5 30t-22.5 92v337q0 18 12 30t32 12t32 -12t12 -30v-332zM6 599q-12 12 -12 35t12.5 35.5t34.5 12.5q20 0 34 -12.5t14 -35.5q0 -24 -13 -35t-35 -11t-35 11zM164 600q-13 12 -13 35
t12.5 35t34.5 12q20 0 34 -12t14 -35q0 -25 -13.5 -36t-34.5 -11t-34 12z" />
    <glyph glyph-name="eth" unicode="&#xf0;" horiz-adv-x="582" 
d="M386 615q72 -73 112 -166.5t40 -195.5q0 -57 -18 -105t-50.5 -83.5t-78 -55t-100.5 -19.5t-100.5 19.5t-78 54t-50.5 81.5t-18 101t18 100.5t50.5 81t77 54.5t98.5 20q26 0 50.5 -5t47.5 -14q-28 43 -58.5 74t-56.5 53q-21 17 -31.5 28.5t-10.5 22.5q0 14 10.5 26.5
t27.5 12.5q14 0 26 -7.5t28 -19.5q6 -6 15 -12l27 28q5 5 11.5 8t14.5 3q15 0 24.5 -9.5t9.5 -23.5t-11 -25zM175 122q20 -24 49 -38t67 -14q37 0 66.5 13.5t49.5 37t30.5 55.5t10.5 69t-10.5 69.5t-30.5 56.5t-49.5 38t-66.5 14t-66 -13.5t-49.5 -37.5t-31 -56t-10.5 -69
t10.5 -69t30.5 -56z" />
    <glyph glyph-name="ntilde" unicode="&#xf1;" horiz-adv-x="575" 
d="M161 42q0 -17 -12 -29.5t-32 -12.5q-18 0 -31 11.5t-13 30.5v421q0 14 11 26t34 12t33 -11.5t10 -25.5v-48q20 44 61 69.5t97 25.5q93 0 140.5 -55.5t47.5 -146.5v-267q0 -17 -12.5 -29.5t-31.5 -12.5t-31 12.5t-12 29.5v242q0 67 -33.5 107.5t-93.5 40.5
q-63 0 -97.5 -41.5t-34.5 -108.5v-240zM455 659q0 -21 -13 -35q-14 -19 -32.5 -30t-41.5 -11q-24 0 -42 6.5t-33 14.5t-30 14.5t-34 6.5q-20 0 -32.5 -8t-22.5 -19q-5 -6 -11 -9.5t-17 -3.5q-14 0 -22 9t-8 22q0 7 3 15.5t10 16.5q16 20 37 32.5t55 12.5q23 0 40 -6.5
t31.5 -14t29 -13.5t32.5 -6q15 0 25 6.5t20 20.5q5 6 11 10.5t14 4.5q12 0 21.5 -10t9.5 -26z" />
    <glyph glyph-name="ograve" unicode="&#xf2;" horiz-adv-x="582" 
d="M190 10q-45 20 -77.5 55t-50.5 82.5t-18 102.5t18 103t50.5 83t78 55t100.5 20t100.5 -20t78 -55t50.5 -83t18 -103t-18 -102.5t-50.5 -82.5t-78 -55t-100.5 -20t-101 20zM175 123q20 -25 49 -39t67 -14q37 0 66.5 14t49.5 38t30.5 56.5t10.5 70.5t-10.5 71.5t-30.5 58
t-49.5 39t-66.5 14.5t-66 -14t-49.5 -38.5t-31 -57.5t-10.5 -71t10.5 -70.5t30.5 -57.5zM212 650q-17 11 -17 33q0 17 13 29t29 12q12 0 22.5 -7.5t18.5 -15.5l102 -98q12 -12 12 -24q0 -11 -8 -19.5t-20 -8.5q-8 0 -19 7z" />
    <glyph glyph-name="oacute" unicode="&#xf3;" horiz-adv-x="582" 
d="M190 10q-45 20 -77.5 55t-50.5 82.5t-18 102.5t18 103t50.5 83t78 55t100.5 20t100.5 -20t78 -55t50.5 -83t18 -103t-18 -102.5t-50.5 -82.5t-78 -55t-100.5 -20t-101 20zM175 123q20 -25 49 -39t67 -14q37 0 66.5 14t49.5 38t30.5 56.5t10.5 70.5t-10.5 71.5t-30.5 58
t-49.5 39t-66.5 14.5t-66 -14t-49.5 -38.5t-31 -57.5t-10.5 -71t10.5 -70.5t30.5 -57.5zM241 558q-10 -7 -18 -7q-12 0 -20 8.5t-8 19.5q0 12 12 24l102 98q8 8 18.5 15.5t22.5 7.5q16 0 29 -12t13 -29q0 -21 -18 -33z" />
    <glyph glyph-name="ocircumflex" unicode="&#xf4;" horiz-adv-x="582" 
d="M190 10q-45 20 -77.5 55t-50.5 82.5t-18 102.5t18 103t50.5 83t78 55t100.5 20t100.5 -20t78 -55t50.5 -83t18 -103t-18 -102.5t-50.5 -82.5t-78 -55t-100.5 -20t-101 20zM175 123q20 -25 49 -39t67 -14q37 0 66.5 14t49.5 38t30.5 56.5t10.5 70.5t-10.5 71.5t-30.5 58
t-49.5 39t-66.5 14.5t-66 -14t-49.5 -38.5t-31 -57.5t-10.5 -71t10.5 -70.5t30.5 -57.5zM189 560q-8 -5 -12.5 -7t-9.5 -2q-10 0 -17 7.5t-7 16.5q0 12 14 26l108 109q7 7 13.5 10.5t16.5 3.5q17 0 29 -14l108 -109q6 -7 10 -13t4 -13q0 -9 -7 -16.5t-18 -7.5q-4 0 -8.5 1.5
t-12.5 7.5l-106 81z" />
    <glyph glyph-name="otilde" unicode="&#xf5;" horiz-adv-x="582" 
d="M190 10q-45 20 -77.5 55t-50.5 82.5t-18 102.5t18 103t50.5 83t78 55t100.5 20t100.5 -20t78 -55t50.5 -83t18 -103t-18 -102.5t-50.5 -82.5t-78 -55t-100.5 -20t-101 20zM175 123q20 -25 49 -39t67 -14q37 0 66.5 14t49.5 38t30.5 56.5t10.5 70.5t-10.5 71.5t-30.5 58
t-49.5 39t-66.5 14.5t-66 -14t-49.5 -38.5t-31 -57.5t-10.5 -71t10.5 -70.5t30.5 -57.5zM459 659q0 -21 -13 -35q-14 -19 -32.5 -30t-41.5 -11q-24 0 -42 6.5t-33 14.5t-30 14.5t-34 6.5q-20 0 -32.5 -8t-22.5 -19q-5 -6 -11 -9.5t-17 -3.5q-14 0 -22 9t-8 22q0 7 3 15.5
t10 16.5q16 20 37 32.5t55 12.5q23 0 40 -6.5t31.5 -14t29 -13.5t32.5 -6q15 0 25 6.5t20 20.5q5 6 11 10.5t14 4.5q12 0 21.5 -10t9.5 -26z" />
    <glyph glyph-name="odieresis" unicode="&#xf6;" horiz-adv-x="582" 
d="M190 10q-45 20 -77.5 55t-50.5 82.5t-18 102.5t18 103t50.5 83t78 55t100.5 20t100.5 -20t78 -55t50.5 -83t18 -103t-18 -102.5t-50.5 -82.5t-78 -55t-100.5 -20t-101 20zM175 123q20 -25 49 -39t67 -14q37 0 66.5 14t49.5 38t30.5 56.5t10.5 70.5t-10.5 71.5t-30.5 58
t-49.5 39t-66.5 14.5t-66 -14t-49.5 -38.5t-31 -57.5t-10.5 -71t10.5 -70.5t30.5 -57.5zM177 599q-12 12 -12 35t12.5 35.5t34.5 12.5q20 0 34 -12.5t14 -35.5q0 -24 -13 -35t-35 -11t-35 11zM335 600q-13 12 -13 35t12.5 35t34.5 12q20 0 34 -12t14 -35q0 -25 -13.5 -36
t-34.5 -11t-34 12z" />
    <glyph glyph-name="divide" unicode="&#xf7;" 
d="M160 283q-16 0 -26 9.5t-10 24.5t10 24.5t26 9.5h308q16 0 26 -9.5t10 -24.5t-10 -24.5t-26 -9.5h-308zM264 95q-16 15 -16 44q0 28 16 44t44 16q25 0 42.5 -15.5t17.5 -43.5q0 -30 -17 -45t-43 -15q-27 0 -44 15zM264 442q-16 15 -16 44q0 28 16 44t44 16
q25 0 42.5 -15.5t17.5 -43.5q0 -30 -17 -45t-43 -15q-27 0 -44 15z" />
    <glyph glyph-name="oslash" unicode="&#xf8;" horiz-adv-x="582" 
d="M155 8q-8 -11 -15 -14.5t-15 -3.5q-14 0 -23.5 9t-9.5 22q0 8 2.5 13t4.5 10l14 20q-33 35 -51 82.5t-18 103.5q0 55 18 103t50.5 83t78 55t100.5 20q63 0 116 -28l8 12q7 10 14.5 13t14.5 3q15 0 24 -9.5t9 -22.5t-6 -20l-10 -15q36 -35 56.5 -85t20.5 -109
q0 -55 -18 -102.5t-50.5 -82.5t-78 -55t-100.5 -20q-36 0 -67.5 8.5t-58.5 24.5zM212 90q34 -20 79 -20q37 0 66.5 14t49.5 38t30.5 56.5t10.5 70.5q0 36 -9.5 68t-27.5 56zM360 416q-32 16 -69 16t-66 -14t-49.5 -38.5t-31 -57.5t-10.5 -71q0 -32 7.5 -61.5t22.5 -52.5z
" />
    <glyph glyph-name="ugrave" unicode="&#xf9;" horiz-adv-x="549" 
d="M159 197q0 -57 29.5 -92t86.5 -35t86.5 35t29.5 92v262q0 18 12.5 30t31.5 12t31 -12t12 -30v-260q0 -45 -13.5 -83.5t-39.5 -66.5t-64 -43.5t-86 -15.5q-49 0 -87 15.5t-64 43.5t-39.5 66.5t-13.5 83.5v260q0 18 12.5 30t31.5 12q18 0 31 -12t13 -30v-262zM175 650
q-17 11 -17 33q0 17 13 29t29 12q12 0 22.5 -7.5t18.5 -15.5l102 -98q12 -12 12 -24q0 -11 -8 -19.5t-20 -8.5q-8 0 -19 7z" />
    <glyph glyph-name="uacute" unicode="&#xfa;" horiz-adv-x="549" 
d="M159 197q0 -57 29.5 -92t86.5 -35t86.5 35t29.5 92v262q0 18 12.5 30t31.5 12t31 -12t12 -30v-260q0 -45 -13.5 -83.5t-39.5 -66.5t-64 -43.5t-86 -15.5q-49 0 -87 15.5t-64 43.5t-39.5 66.5t-13.5 83.5v260q0 18 12.5 30t31.5 12q18 0 31 -12t13 -30v-262zM244 558
q-10 -7 -18 -7q-12 0 -20 8.5t-8 19.5q0 12 12 24l102 98q8 8 18.5 15.5t22.5 7.5q16 0 29 -12t13 -29q0 -21 -18 -33z" />
    <glyph glyph-name="ucircumflex" unicode="&#xfb;" horiz-adv-x="549" 
d="M159 197q0 -57 29.5 -92t86.5 -35t86.5 35t29.5 92v262q0 18 12.5 30t31.5 12t31 -12t12 -30v-260q0 -45 -13.5 -83.5t-39.5 -66.5t-64 -43.5t-86 -15.5q-49 0 -87 15.5t-64 43.5t-39.5 66.5t-13.5 83.5v260q0 18 12.5 30t31.5 12q18 0 31 -12t13 -30v-262zM172 560
q-8 -5 -12.5 -7t-9.5 -2q-10 0 -17 7.5t-7 16.5q0 12 14 26l108 109q7 7 13.5 10.5t16.5 3.5q17 0 29 -14l108 -109q6 -7 10 -13t4 -13q0 -9 -7 -16.5t-18 -7.5q-4 0 -8.5 1.5t-12.5 7.5l-106 81z" />
    <glyph glyph-name="udieresis" unicode="&#xfc;" horiz-adv-x="549" 
d="M159 197q0 -57 29.5 -92t86.5 -35t86.5 35t29.5 92v262q0 18 12.5 30t31.5 12t31 -12t12 -30v-260q0 -45 -13.5 -83.5t-39.5 -66.5t-64 -43.5t-86 -15.5q-49 0 -87 15.5t-64 43.5t-39.5 66.5t-13.5 83.5v260q0 18 12.5 30t31.5 12q18 0 31 -12t13 -30v-262zM160 599
q-12 12 -12 35t12.5 35.5t34.5 12.5q20 0 34 -12.5t14 -35.5q0 -24 -13 -35t-35 -11t-35 11zM318 600q-13 12 -13 35t12.5 35t34.5 12q20 0 34 -12t14 -35q0 -25 -13.5 -36t-34.5 -11t-34 12z" />
    <glyph glyph-name="yacute" unicode="&#xfd;" horiz-adv-x="505" 
d="M275 -35q-18 -42 -36 -71.5t-39.5 -48t-48 -27t-61.5 -8.5q-54 0 -54 39q0 19 10.5 30t33.5 11q27 0 45.5 6t32 16.5t22 25.5t16.5 33l13 34l-176 430q-5 13 -5 24q0 19 14 30.5t34 11.5q28 0 38 -27l137 -363l143 362q5 12 13.5 20t23.5 8q17 0 30 -11t13 -29
q0 -8 -2 -15t-4 -12zM202 558q-10 -7 -18 -7q-12 0 -20 8.5t-8 19.5q0 12 12 24l102 98q8 8 18.5 15.5t22.5 7.5q16 0 29 -12t13 -29q0 -21 -18 -33z" />
    <glyph glyph-name="thorn" unicode="&#xfe;" horiz-adv-x="612" 
d="M161 -148q0 -18 -12 -30t-31 -12q-20 0 -32.5 12t-12.5 30v801q0 13 11 25t34 12t33 -11t10 -27v-256q24 48 67.5 81.5t109.5 33.5q51 0 93 -19.5t73 -54t48 -82.5t17 -105q0 -56 -17.5 -103.5t-48 -82.5t-73.5 -54.5t-94 -19.5q-63 0 -107.5 31.5t-67.5 84.5v-254z
M205 122q21 -24 50.5 -38t64.5 -14q36 0 65 14t50 38t32.5 57t11.5 71t-11.5 71.5t-32.5 58t-50 38.5t-65 14q-35 0 -64.5 -14t-50.5 -39t-32.5 -58t-11.5 -71t11.5 -71t32.5 -57z" />
    <glyph glyph-name="ydieresis" unicode="&#xff;" horiz-adv-x="505" 
d="M275 -35q-18 -42 -36 -71.5t-39.5 -48t-48 -27t-61.5 -8.5q-54 0 -54 39q0 19 10.5 30t33.5 11q27 0 45.5 6t32 16.5t22 25.5t16.5 33l13 34l-176 430q-5 13 -5 24q0 19 14 30.5t34 11.5q28 0 38 -27l137 -363l143 362q5 12 13.5 20t23.5 8q17 0 30 -11t13 -29
q0 -8 -2 -15t-4 -12zM138 599q-12 12 -12 35t12.5 35.5t34.5 12.5q20 0 34 -12.5t14 -35.5q0 -24 -13 -35t-35 -11t-35 11zM296 600q-13 12 -13 35t12.5 35t34.5 12q20 0 34 -12t14 -35q0 -25 -13.5 -36t-34.5 -11t-34 12z" />
    <glyph glyph-name="dotlessi" unicode="&#x131;" horiz-adv-x="239" 
d="M161 127q0 -21 6 -34t23 -13q14 0 20 -11t6 -25q0 -20 -12 -32t-38 -12q-48 0 -70.5 30t-22.5 92v337q0 18 12 30t32 12t32 -12t12 -30v-332z" />
    <glyph glyph-name="OE" unicode="&#x152;" horiz-adv-x="1079" 
d="M636 0q-48 0 -48 40v91q-35 -62 -95.5 -101.5t-147.5 -39.5q-67 0 -124 26t-98 73.5t-64.5 113t-23.5 143.5q0 79 23.5 144t65.5 111.5t100 72.5t128 26q86 0 145 -37.5t91 -100.5v88q0 17 11.5 28.5t32.5 11.5h374q20 0 31 -11t11 -28q0 -19 -11 -30t-31 -11h-330v-217
h222q19 0 31.5 -11t12.5 -29q0 -19 -12.5 -29.5t-31.5 -10.5h-222v-233h330q20 0 31 -11t11 -29t-11 -29t-31 -11h-370zM569 239q16 49 17 105q0 58 -15.5 107t-45 85t-72 56t-96.5 20q-53 0 -95 -20t-72 -55.5t-46 -84t-16 -105.5t16 -106t46 -86q30 -36 72.5 -56.5
t94.5 -20.5t94.5 20.5t72 56.5t45.5 84z" />
    <glyph glyph-name="oe" unicode="&#x153;" horiz-adv-x="965" 
d="M535 236q5 -75 48 -120.5t115 -45.5q48 0 82.5 17t55.5 35q13 8 21 8q17 0 28 -12.5t11 -27.5q0 -11 -5.5 -20t-12.5 -14q-29 -27 -77 -46.5t-109 -19.5q-68 0 -119 28.5t-81 78.5q-32 -49 -83.5 -78t-117.5 -29q-55 0 -100.5 20t-78 55t-50.5 82.5t-18 102.5t18 103
t50.5 83t78 55t100.5 20q68 0 119.5 -30t82.5 -81q32 51 83 81t115 30q50 0 91.5 -17.5t71.5 -47t46.5 -68t16.5 -80.5q0 -27 -9.5 -44.5t-38.5 -17.5h-334zM175 123q20 -25 49 -39t67 -14q37 0 66.5 14t49.5 38t30.5 56.5t10.5 70.5t-10.5 71.5t-30.5 58t-49.5 39
t-66.5 14.5t-66 -14t-49.5 -38.5t-31 -57.5t-10.5 -71t10.5 -70.5t30.5 -57.5zM830 292q2 25 -7 50t-27.5 45t-45.5 32.5t-60 12.5q-57 0 -99.5 -37t-53.5 -103h293z" />
    <glyph glyph-name="Scaron" unicode="&#x160;" horiz-adv-x="589" 
d="M97 57q-19 17 -31 31q-8 8 -15.5 19t-7.5 23t4.5 20.5t11.5 13.5t14 7.5t13 2.5q20 0 36 -16q13 -14 29 -28t37 -25.5t48.5 -19t63.5 -7.5q30 0 57 7.5t47.5 21.5t32 34t11.5 45q0 29 -11.5 49t-34.5 34.5t-58.5 26t-83.5 24.5q-34 9 -68.5 22.5t-62.5 35t-46 54
t-18 78.5q0 43 18 78.5t49.5 60t73.5 38t90 13.5q34 0 62 -5.5t50.5 -14.5t40 -19t30.5 -19q15 -10 21.5 -22t6.5 -24q0 -22 -14.5 -32.5t-28.5 -10.5t-22.5 4t-16.5 9q-9 5 -20.5 13t-27.5 15.5t-37.5 12.5t-51.5 5q-64 0 -97 -30.5t-33 -70.5q0 -25 12.5 -43.5t36.5 -32.5
t57.5 -25.5t75.5 -22.5q35 -9 70.5 -21.5t64.5 -34.5t47 -55.5t18 -84.5q0 -40 -16 -76.5t-48 -64t-79 -44t-108 -16.5q-45 0 -81 10t-63.5 25t-47.5 32zM160 874q-14 14 -14 25q0 9 7 17t17 8q5 0 9.5 -2t12.5 -7l105 -81l106 81q13 9 21 9q11 0 18 -8t7 -17q0 -6 -4 -12
t-10 -13l-108 -110q-11 -13 -29 -13q-10 0 -16.5 3.5t-13.5 9.5z" />
    <glyph glyph-name="scaron" unicode="&#x161;" horiz-adv-x="468" 
d="M130 9q-43 20 -71 53q-14 14 -14 33q0 13 11 26t26 13q9 0 17.5 -4.5t14.5 -9.5q19 -19 47.5 -36t72.5 -17q45 0 72 18t27 52q0 26 -20 42t-50.5 28t-66.5 23q-35 12 -65.5 29.5t-50.5 43.5t-20 68q0 31 13.5 57t37 44.5t56 28.5t71.5 10q54 0 91.5 -17t58.5 -39
q8 -8 11 -16.5t3 -16.5q0 -12 -8.5 -25.5t-25.5 -13.5q-7 0 -15 4t-15 9q-14 11 -38 25t-61 14q-35 0 -62 -14.5t-27 -48.5q0 -24 20 -38.5t47.5 -25.5t55.5 -20q6 -3 27.5 -9.5t52 -24t50.5 -43t20 -65.5q0 -34 -13.5 -62.5t-38.5 -49.5t-60 -32.5t-78 -11.5q-60 0 -103 19
zM100 674q-14 14 -14 25q0 9 7 17t17 8q5 0 9.5 -2t12.5 -7l105 -81l106 81q13 9 21 9q11 0 18 -8t7 -17q0 -6 -4 -12t-10 -13l-108 -110q-11 -13 -29 -13q-10 0 -16.5 3.5t-13.5 9.5z" />
    <glyph glyph-name="Ydieresis" unicode="&#x178;" horiz-adv-x="629" 
d="M359 44q0 -20 -12.5 -32t-32.5 -12t-32.5 12t-12.5 32v216l-224 361q-7 14 -7 27q0 17 11 29.5t33 12.5q11 0 20.5 -4.5t17.5 -16.5l195 -323l192 318q8 13 16 19.5t25 6.5q15 0 29 -11t14 -28q0 -9 -4 -19t-9 -18l-219 -354v-216zM200 799q-12 12 -12 35t12.5 35.5
t34.5 12.5q20 0 34 -12.5t14 -35.5q0 -24 -13 -35t-35 -11t-35 11zM358 800q-13 12 -13 35t12.5 35t34.5 12q20 0 34 -12t14 -35q0 -25 -13.5 -36t-34.5 -11t-34 12z" />
    <glyph glyph-name="Zcaron" unicode="&#x17d;" horiz-adv-x="587" 
d="M92 0q-20 0 -31.5 11t-11.5 28q0 16 11 32l359 539h-307q-20 0 -32 10.5t-12 29.5q0 18 12 29t32 11h384q20 0 31 -10.5t11 -27.5q0 -8 -3 -18t-11 -21l-355 -533h321q20 0 32 -11t12 -29t-12 -29t-32 -11h-398zM160 874q-14 14 -14 25q0 9 7 17t17 8q5 0 9.5 -2t12.5 -7
l105 -81l106 81q13 9 21 9q11 0 18 -8t7 -17q0 -6 -4 -12t-10 -13l-108 -110q-11 -13 -29 -13q-10 0 -16.5 3.5t-13.5 9.5z" />
    <glyph glyph-name="zcaron" unicode="&#x17e;" horiz-adv-x="455" 
d="M78 0q-20 0 -30.5 11.5t-10.5 29.5q0 16 13 33l253 348h-210q-19 0 -30.5 11t-11.5 29q0 17 11.5 28t30.5 11h283q21 0 31.5 -10.5t10.5 -26.5q0 -9 -4.5 -18.5t-12.5 -20.5l-250 -345h227q19 0 30 -10t11 -29q0 -20 -11 -30.5t-30 -10.5h-300zM96 674q-14 14 -14 25
q0 9 7 17t17 8q5 0 9.5 -2t12.5 -7l105 -81l106 81q13 9 21 9q11 0 18 -8t7 -17q0 -6 -4 -12t-10 -13l-108 -110q-11 -13 -29 -13q-10 0 -16.5 3.5t-13.5 9.5z" />
    <glyph glyph-name="florin" unicode="&#x192;" 
d="M346 214q0 -107 -53.5 -165.5t-146.5 -58.5q-20 0 -33.5 1.5t-19.5 3.5q-18 5 -25.5 16.5t-7.5 23.5q0 21 11.5 30.5t27.5 9.5q11 0 21 -1.5t26 -1.5q112 0 112 123v281q0 107 53 165.5t146 58.5q20 0 34 -1.5t20 -3.5q18 -5 25 -16.5t7 -23.5q0 -21 -11 -30.5t-27 -9.5
q-11 0 -21 1.5t-26 1.5q-55 0 -83.5 -32.5t-28.5 -106.5v-35h103q17 0 28.5 -11t11.5 -28q0 -18 -11.5 -29.5t-28.5 -11.5h-103v-150z" />
    <glyph glyph-name="uni0237" unicode="&#x237;" horiz-adv-x="234" 
d="M161 -9q0 -85 -39 -133t-119 -48q-29 0 -42.5 12.5t-13.5 29.5t10.5 28t30.5 11q29 0 46 9.5t25.5 25t11 36t2.5 42.5v455q0 18 12 30t32 12t32 -12t12 -30v-468z" />
    <glyph glyph-name="circumflex" unicode="&#x2c6;" horiz-adv-x="500" 
d="M148 560q-8 -5 -12.5 -7t-9.5 -2q-10 0 -17 7.5t-7 16.5q0 12 14 26l108 109q7 7 13.5 10.5t16.5 3.5q17 0 29 -14l108 -109q6 -7 10 -13t4 -13q0 -9 -7 -16.5t-18 -7.5q-4 0 -8.5 1.5t-12.5 7.5l-106 81z" />
    <glyph glyph-name="caron" unicode="&#x2c7;" horiz-adv-x="500" 
d="M116 674q-14 14 -14 25q0 9 7 17t17 8q5 0 9.5 -2t12.5 -7l105 -81l106 81q13 9 21 9q11 0 18 -8t7 -17q0 -6 -4 -12t-10 -13l-108 -110q-11 -13 -29 -13q-10 0 -16.5 3.5t-13.5 9.5z" />
    <glyph glyph-name="ring" unicode="&#x2da;" horiz-adv-x="500" 
d="M178 578q-14 14 -22.5 33.5t-8.5 43.5t8.5 43.5t23 33t33 21t38.5 7.5q22 0 41 -8t32.5 -22t21.5 -33.5t8 -41.5q0 -45 -29 -74.5t-74 -29.5q-20 0 -39 7t-33 20zM215 621q12 -14 35 -14q24 0 35 15.5t11 32.5q0 18 -11 33.5t-35 15.5q-27 0 -36.5 -16t-9.5 -32
q0 -20 11 -35z" />
    <glyph glyph-name="tilde" unicode="&#x2dc;" horiz-adv-x="500" 
d="M418 659q0 -21 -13 -35q-14 -19 -32.5 -30t-41.5 -11q-24 0 -42 6.5t-33 14.5t-30 14.5t-34 6.5q-20 0 -32.5 -8t-22.5 -19q-5 -6 -11 -9.5t-17 -3.5q-14 0 -22 9t-8 22q0 7 3 15.5t10 16.5q16 20 37 32.5t55 12.5q23 0 40 -6.5t31.5 -14t29 -13.5t32.5 -6q15 0 25 6.5
t20 20.5q5 6 11 10.5t14 4.5q12 0 21.5 -10t9.5 -26z" />
    <glyph glyph-name="endash" unicode="&#x2013;" horiz-adv-x="470" 
d="M104 217q-17 0 -29 11t-12 29q0 19 12 29.5t29 10.5h262q17 0 29 -10.5t12 -29.5q0 -18 -12 -29t-29 -11h-262z" />
    <glyph glyph-name="emdash" unicode="&#x2014;" horiz-adv-x="745" 
d="M104 217q-17 0 -29 11t-12 29q0 19 12 29.5t29 10.5h537q18 0 29.5 -10.5t11.5 -29.5q0 -18 -11.5 -29t-29.5 -11h-537z" />
    <glyph glyph-name="quoteleft" unicode="&#x2018;" horiz-adv-x="239" 
d="M63 556q0 48 16 78.5t37 54.5q13 16 31 16q14 0 24 -9t10 -24q0 -9 -9 -21q-15 -16 -28 -36.5t-13 -58.5v-38q0 -17 -8.5 -26.5t-24.5 -9.5q-35 0 -35 36v38z" />
    <glyph glyph-name="quoteright" unicode="&#x2019;" horiz-adv-x="239" 
d="M108 669q0 17 8.5 26.5t24.5 9.5q35 0 35 -36v-38q0 -48 -16 -78.5t-37 -54.5q-13 -16 -31 -16q-14 0 -24 9t-10 24q0 9 9 21q7 8 14.5 16.5t13.5 19.5t9.5 25.5t3.5 33.5v38z" />
    <glyph glyph-name="quotesinglbase" unicode="&#x201a;" horiz-adv-x="239" 
d="M108 40q0 17 8.5 26.5t24.5 9.5q35 0 35 -36v-38q0 -48 -16 -79t-37 -54q-14 -17 -31 -17q-14 0 -24 9.5t-10 24.5q0 9 9 20q14 16 27.5 37t13.5 59v38z" />
    <glyph glyph-name="quotedblleft" unicode="&#x201c;" horiz-adv-x="386" 
d="M63 556q0 48 16 78.5t37 54.5q13 16 31 16q14 0 24 -9t10 -24q0 -9 -9 -21q-15 -16 -28 -36.5t-13 -58.5v-38q0 -17 -8.5 -26.5t-24.5 -9.5q-35 0 -35 36v38zM210 556q0 48 16 78.5t37 54.5q13 16 31 16q14 0 24 -9t10 -24q0 -9 -9 -21q-15 -16 -28 -36.5t-13 -58.5v-38
q0 -17 -8.5 -26.5t-24.5 -9.5q-35 0 -35 36v38z" />
    <glyph glyph-name="quotedblright" unicode="&#x201d;" horiz-adv-x="386" 
d="M108 669q0 17 8.5 26.5t24.5 9.5q35 0 35 -36v-38q0 -48 -16 -78.5t-37 -54.5q-13 -16 -31 -16q-14 0 -24 9t-10 24q0 9 9 21q7 8 14.5 16.5t13.5 19.5t9.5 25.5t3.5 33.5v38zM255 669q0 17 8.5 26.5t24.5 9.5q35 0 35 -36v-38q0 -48 -16 -78.5t-37 -54.5
q-13 -16 -31 -16q-14 0 -24 9t-10 24q0 9 9 21q7 8 14.5 16.5t13.5 19.5t9.5 25.5t3.5 33.5v38z" />
    <glyph glyph-name="quotedblbase" unicode="&#x201e;" horiz-adv-x="386" 
d="M108 40q0 17 8.5 26.5t24.5 9.5q35 0 35 -36v-38q0 -48 -16 -79t-37 -54q-14 -17 -31 -17q-14 0 -24 9.5t-10 24.5q0 9 9 20q14 16 27.5 37t13.5 59v38zM255 40q0 17 8.5 26.5t24.5 9.5q35 0 35 -36v-38q0 -48 -16 -79t-37 -54q-14 -17 -31 -17q-14 0 -24 9.5t-10 24.5
q0 9 9 20q14 16 27.5 37t13.5 59v38z" />
    <glyph glyph-name="dagger" unicode="&#x2020;" horiz-adv-x="403" 
d="M246 43q0 -19 -13.5 -31t-30.5 -12q-18 0 -31.5 12t-13.5 31v383h-93q-17 0 -29 11.5t-12 29.5q0 17 12 29t29 12h93v139q0 19 13.5 31t31.5 12q17 0 30.5 -12t13.5 -31v-139h93q18 0 29.5 -12t11.5 -29t-12 -29t-29 -12h-93v-383z" />
    <glyph glyph-name="daggerdbl" unicode="&#x2021;" horiz-adv-x="403" 
d="M64 182q-17 0 -29 12t-12 29q0 18 12 29.5t29 11.5h93v162h-93q-17 0 -29 11.5t-12 29.5q0 17 12 29t29 12h93v139q0 19 13.5 31t31.5 12q17 0 30.5 -12t13.5 -31v-139h93q18 0 29.5 -12t11.5 -29t-12 -29t-29 -12h-93v-162h93q17 0 29 -12t12 -29t-11.5 -29t-29.5 -12
h-93v-144q0 -19 -13.5 -31t-30.5 -12q-18 0 -31.5 12t-13.5 31v144h-93z" />
    <glyph glyph-name="bullet" unicode="&#x2022;" horiz-adv-x="492" 
d="M160 162q-31 31 -31 87t31 86.5t86 30.5t85.5 -30.5t30.5 -86.5t-30.5 -86.5t-85.5 -30.5t-86 30z" />
    <glyph glyph-name="ellipsis" unicode="&#x2026;" horiz-adv-x="705" 
d="M86 15q-16 15 -16 44q0 28 16 44t44 16q25 0 42.5 -15.5t17.5 -43.5q0 -30 -17 -45t-43 -15q-27 0 -44 15zM308 15q-16 15 -16 44q0 28 16 44t44 16q25 0 42.5 -15.5t17.5 -43.5q0 -30 -17 -45t-43 -15q-27 0 -44 15zM530 15q-16 15 -16 44q0 28 16 44t44 16
q25 0 42.5 -15.5t17.5 -43.5q0 -30 -17 -45t-43 -15q-27 0 -44 15z" />
    <glyph glyph-name="perthousand" unicode="&#x2030;" horiz-adv-x="1084" 
d="M180 354q-62 0 -102 45t-40 129q0 41 11 73t30 54t45 33.5t56 11.5q62 0 102 -45t40 -127q0 -83 -40 -128.5t-102 -45.5zM151 14q-8 -11 -15.5 -15t-14.5 -4q-15 0 -24.5 10.5t-9.5 22.5q0 8 3 13.5t9 13.5l491 617q8 11 15 14.5t15 3.5q14 0 23.5 -9.5t9.5 -24.5
q0 -7 -3 -12.5t-10 -13.5zM126 443q21 -27 54 -27t54 27.5t21 84.5q0 56 -21 83.5t-54 27.5t-54 -27t-21 -84t21 -85zM565 -10q-62 0 -102 45t-40 128q0 41 11 73.5t30 54.5t45 33.5t56 11.5q62 0 102 -45t40 -127q0 -84 -40 -129t-102 -45zM511 79q21 -28 54 -28t54 28
t21 85q0 56 -21 83t-54 27t-54 -26.5t-21 -83.5t21 -85zM903 -10q-62 0 -102 45t-40 128q0 41 11 73.5t30 54.5t45 33.5t56 11.5q62 0 102 -45t40 -127q0 -84 -40 -129t-102 -45zM849 79q21 -28 54 -28t54 28t21 85q0 56 -21 83t-54 27t-54 -26.5t-21 -83.5t21 -85z" />
    <glyph glyph-name="guilsinglleft" unicode="&#x2039;" horiz-adv-x="353" 
d="M53 221q-15 12 -15 28q0 11 5 17.5t10 11.5l202 162q5 4 11.5 7t14.5 3q13 0 22.5 -10t9.5 -24q0 -8 -2.5 -15.5t-10.5 -13.5l-176 -136l174 -140q15 -12 15 -29q0 -13 -9 -23t-23 -10q-8 0 -14.5 3t-11.5 7z" />
    <glyph glyph-name="guilsinglright" unicode="&#x203a;" horiz-adv-x="353" 
d="M97 59q-5 -4 -11.5 -7t-14.5 -3q-14 0 -23 10t-9 23q0 17 15 29l174 140l-175 136q-8 6 -11 13.5t-3 15.5q0 14 9.5 24t22.5 10q8 0 14.5 -3t11.5 -7l202 -162q5 -5 10 -11.5t5 -17.5q0 -16 -15 -28z" />
    <glyph glyph-name="fraction" unicode="&#x2044;" horiz-adv-x="65" 
d="M-187 14q-8 -11 -15 -15t-15 -4q-15 0 -24 10.5t-9 22.5q0 8 3 13.5t8 13.5l491 617q9 11 15.5 14.5t14.5 3.5q14 0 23.5 -9.5t9.5 -24.5q0 -11 -12 -26z" />
    <glyph glyph-name="uni2074" unicode="&#x2074;" horiz-adv-x="339" 
d="M52 414q-14 0 -22.5 8t-8.5 21q0 14 12 27l160 203q11 14 21.5 18t24.5 4q15 0 25 -9t10 -24v-195h25q14 0 23 -6t9 -20q0 -15 -9 -21t-22 -6h-26v-38q0 -15 -9.5 -24t-25.5 -9q-15 0 -25 9t-10 24v38h-152zM90 467h114v146z" />
    <glyph glyph-name="Euro" unicode="&#x20ac;" 
d="M32 233q-15 0 -25 9.5t-10 24.5t10 25t26 10h36q-1 11 -1 21v22q0 11 0.5 21.5t1.5 21.5h-38q-15 0 -25 10t-10 25t10 24.5t26 9.5h47q13 56 38.5 101t61 76.5t80.5 48.5t96 17q48 0 85.5 -13t65.5 -31.5t46.5 -39t27.5 -35.5q16 -26 16 -49q0 -21 -14 -31.5t-28 -10.5
q-9 0 -17.5 3.5t-15.5 11.5q-15 21 -31.5 40.5t-36.5 34t-44 23.5t-54 9q-66 0 -112.5 -42.5t-67.5 -112.5h192q15 0 25 -9.5t10 -24.5t-10 -25t-25 -10h-205q-2 -11 -2 -22v-44q0 -10 2 -20h205q15 0 25 -10t10 -25t-10 -24.5t-25 -9.5h-192q21 -70 68.5 -112.5
t117.5 -42.5q54 0 92 27t70 74q7 10 14.5 13.5t17.5 3.5q17 0 27.5 -13.5t10.5 -27.5q0 -8 -2.5 -18t-10.5 -20q-12 -16 -31 -38t-46.5 -41.5t-64.5 -33.5t-83 -14q-52 0 -96.5 17t-80.5 48.5t-61 76.5t-38 101h-48z" />
    <glyph glyph-name="trademark" unicode="&#x2122;" horiz-adv-x="715" 
d="M191 403q0 -15 -9.5 -24t-24.5 -9t-24.5 9t-9.5 24v228h-79q-14 0 -23.5 7.5t-9.5 21.5t9.5 22t23.5 8h226q14 0 23.5 -8t9.5 -22t-9.5 -21.5t-23.5 -7.5h-79v-228zM398 402q0 -14 -10 -23t-25 -9q-14 0 -23.5 9t-9.5 23v250q0 18 10.5 28t27.5 10q13 0 21.5 -7.5
t17.5 -23.5l96 -159l99 159q20 31 39 31q15 0 26 -9t11 -29v-250q0 -14 -10 -23t-24 -9q-15 0 -24.5 9t-9.5 23v156l-77 -125q-7 -11 -13.5 -16.5t-17.5 -5.5q-17 0 -30 22l-74 124v-155z" />
    </font>
</defs>
</svg>
